<?xml version="1.0" standalone="no"?>
<!DOCTYPE svg PUBLIC "-//W3C//DTD SVG 20010904//EN"
 "http://www.w3.org/TR/2001/REC-SVG-20010904/DTD/svg10.dtd">
<svg version="1.0" xmlns="http://www.w3.org/2000/svg"
 width="6000.000000pt" height="6000.000000pt" viewBox="0 0 6000.000000 6000.000000"
 preserveAspectRatio="xMidYMid meet">
<metadata>
Created by potrace 1.16, written by Peter Selinger 2001-2019
</metadata>
<g transform="translate(0.000000,6000.000000) scale(0.100000,-0.100000)"
fill="#000000" stroke="none">
<path d="M29390 53366 c-25 -8 -56 -17 -70 -21 -43 -13 -144 -96 -187 -154
-51 -70 -96 -166 -116 -251 -21 -88 -40 -310 -31 -379 11 -90 51 -261 79 -336
14 -38 28 -79 32 -90 7 -22 176 -353 216 -425 14 -25 51 -94 82 -155 197 -384
446 -696 757 -948 59 -48 111 -87 116 -87 5 0 16 -7 23 -16 18 -22 115 -64
148 -64 85 0 404 242 576 436 65 73 176 214 200 252 6 9 26 41 45 71 43 71 46
76 242 451 28 52 75 156 105 230 61 149 63 154 92 255 11 39 29 99 40 135 31
102 53 253 48 333 -9 155 -39 268 -113 424 -82 173 -211 287 -353 313 -73 13
-225 -2 -251 -25 -8 -7 -26 -16 -40 -20 -62 -19 -195 -134 -289 -249 -65 -80
-141 -190 -141 -204 0 -5 -6 -14 -13 -20 -17 -14 -106 -195 -142 -287 -15 -38
-31 -74 -35 -80 -4 -5 -12 -26 -19 -45 -6 -19 -20 -50 -32 -69 -24 -39 -36
-33 -55 27 -28 87 -157 398 -191 462 -70 128 -92 163 -179 280 -46 62 -132
144 -197 187 -100 67 -254 98 -347 69z"/>
<path d="M28290 52231 c-169 -45 -279 -197 -347 -481 -13 -53 -36 -50 -96 15
-82 90 -246 205 -291 205 -9 0 -34 10 -56 21 -34 18 -53 21 -113 16 -119 -8
-212 -61 -269 -152 -62 -98 -75 -131 -87 -220 -16 -110 -2 -265 29 -325 11
-22 20 -44 20 -51 0 -6 17 -32 38 -58 21 -25 51 -66 67 -90 17 -24 59 -76 96
-115 36 -39 87 -100 115 -136 93 -123 196 -235 293 -318 111 -97 142 -118 270
-184 90 -47 96 -48 181 -48 84 0 89 1 132 34 24 19 65 65 90 103 84 125 168
264 168 277 0 6 4 16 9 21 5 6 18 37 31 70 12 33 33 89 46 125 28 73 74 225
74 241 0 6 18 52 41 103 75 167 90 230 92 379 1 125 0 137 -31 224 -17 51 -43
111 -58 134 -65 103 -167 185 -266 213 -69 20 -95 19 -178 -3z"/>
<path d="M32315 52243 c-138 -31 -260 -139 -311 -275 -49 -132 -57 -160 -64
-232 -11 -114 24 -268 110 -486 12 -30 27 -73 32 -95 6 -22 17 -60 25 -85 8
-25 20 -65 28 -90 8 -25 21 -67 30 -95 22 -68 130 -285 184 -368 53 -83 130
-169 178 -198 31 -19 44 -21 112 -16 66 5 88 12 149 47 39 22 75 40 79 40 10
0 79 48 153 106 89 71 262 249 352 364 42 52 108 131 147 175 40 44 90 112
112 150 23 39 49 81 58 95 36 52 51 120 51 235 0 116 -9 153 -63 275 -33 72
-133 169 -206 199 -83 35 -182 27 -279 -21 -40 -20 -96 -52 -125 -72 -48 -32
-164 -139 -195 -180 -24 -30 -35 -11 -83 148 -5 16 -30 67 -55 114 -64 116
-173 223 -258 252 -56 19 -115 24 -161 13z"/>
<path d="M34625 51470 c-49 -4 -108 -14 -130 -22 -22 -8 -57 -18 -77 -22 -36
-6 -121 -42 -163 -68 -151 -94 -184 -130 -231 -254 -39 -105 -28 -212 39 -352
46 -98 200 -225 357 -294 36 -16 79 -36 95 -43 46 -22 185 -65 209 -65 11 0
53 -8 91 -19 120 -32 245 -59 375 -80 247 -40 336 -53 425 -62 50 -5 149 -16
220 -24 183 -20 231 -23 580 -40 425 -20 1025 -38 1228 -36 92 0 175 -3 185
-8 9 -6 46 -22 82 -36 36 -15 83 -35 105 -46 22 -10 44 -19 48 -19 8 0 105
-42 139 -60 9 -5 58 -25 108 -45 50 -20 99 -40 108 -45 9 -5 37 -17 62 -28 25
-11 79 -35 120 -55 41 -19 104 -48 140 -65 36 -16 92 -42 125 -57 33 -14 67
-30 75 -36 8 -5 22 -12 30 -15 48 -20 122 -55 258 -123 84 -42 165 -82 180
-89 15 -7 34 -17 42 -22 8 -5 87 -45 175 -90 88 -44 196 -100 240 -125 44 -24
94 -50 110 -59 17 -8 66 -35 110 -60 90 -51 200 -110 260 -140 22 -11 43 -25
47 -30 9 -13 4 -32 -8 -29 -5 1 -105 9 -221 17 -234 18 -361 11 -462 -25 -63
-22 -79 -32 -157 -97 -87 -73 -115 -134 -117 -259 -2 -87 1 -104 25 -155 53
-114 144 -207 291 -301 124 -78 225 -124 361 -163 26 -7 53 -17 60 -22 17 -13
168 -57 281 -82 55 -13 125 -29 155 -37 71 -18 285 -49 470 -68 80 -8 172 -19
205 -25 97 -16 718 -13 889 5 l147 16 67 -47 c37 -26 99 -72 137 -101 39 -29
95 -71 125 -93 367 -272 794 -609 1061 -839 414 -357 511 -443 594 -521 50
-47 180 -170 290 -272 226 -211 741 -727 921 -923 65 -71 133 -145 151 -163
18 -18 33 -36 33 -41 0 -5 7 -14 15 -21 8 -7 15 -17 15 -23 0 -5 -8 -3 -18 6
-10 10 -23 17 -29 17 -6 0 -47 24 -90 53 -229 152 -631 395 -732 443 -53 24
-113 53 -133 64 -20 11 -44 20 -52 20 -9 0 -42 8 -73 19 -66 21 -137 39 -202
52 -63 13 -198 -22 -269 -68 -66 -43 -134 -129 -156 -195 -24 -76 -21 -202 7
-269 25 -61 88 -168 125 -214 83 -102 293 -301 447 -425 44 -35 112 -91 152
-125 39 -33 100 -81 135 -106 34 -25 101 -75 148 -109 88 -66 162 -116 272
-184 35 -22 89 -57 121 -78 32 -21 61 -38 63 -38 3 0 17 -8 32 -19 55 -37 172
-111 177 -111 3 0 27 -15 53 -34 27 -18 62 -41 78 -50 16 -9 47 -28 69 -41 22
-14 54 -32 70 -40 17 -8 66 -35 110 -59 44 -24 186 -97 315 -161 129 -64 247
-123 262 -131 14 -8 31 -14 38 -14 6 0 35 -10 63 -23 83 -37 146 -63 242 -100
85 -33 119 -44 275 -86 36 -10 75 -23 87 -29 12 -7 31 -12 42 -12 17 0 56 -42
86 -92 6 -9 136 -205 290 -435 154 -229 281 -421 283 -425 2 -4 28 -47 57 -95
30 -49 79 -131 110 -183 50 -85 149 -250 174 -290 27 -43 139 -228 160 -264
13 -22 32 -54 42 -71 11 -16 28 -48 39 -70 10 -22 39 -76 63 -120 24 -44 67
-125 97 -180 29 -55 60 -113 70 -130 10 -16 41 -75 70 -130 30 -55 63 -118 75
-140 56 -100 234 -461 365 -740 23 -49 71 -148 106 -220 35 -71 64 -138 64
-147 0 -21 -26 -24 -37 -4 -41 73 -611 643 -796 796 -75 62 -152 123 -170 134
-17 11 -39 25 -48 31 -48 30 -138 73 -169 80 -19 4 -48 14 -64 22 -40 21 -203
19 -253 -2 -89 -39 -111 -53 -163 -105 -41 -41 -64 -76 -88 -133 -29 -70 -32
-85 -32 -185 0 -89 5 -123 25 -186 14 -42 29 -84 34 -93 6 -10 24 -52 42 -93
17 -41 35 -80 40 -86 5 -6 21 -33 35 -60 14 -27 40 -71 58 -99 179 -274 243
-367 325 -470 52 -66 110 -140 130 -165 125 -160 521 -560 751 -761 204 -177
578 -466 635 -490 9 -4 160 -101 215 -139 29 -20 123 -71 270 -148 58 -30 110
-59 116 -66 13 -13 41 -93 79 -221 15 -49 32 -108 40 -130 7 -22 25 -80 40
-130 15 -49 34 -110 43 -135 9 -25 19 -61 23 -80 4 -19 14 -55 22 -80 33 -97
82 -275 101 -365 6 -33 15 -65 19 -72 4 -6 14 -42 22 -79 8 -38 26 -109 40
-159 14 -49 30 -112 36 -140 6 -27 18 -77 28 -110 18 -58 41 -158 81 -350 11
-49 28 -130 39 -180 11 -49 32 -148 46 -220 15 -71 33 -152 40 -180 7 -27 16
-70 20 -95 3 -25 15 -90 25 -145 10 -55 28 -158 40 -230 12 -71 30 -179 40
-240 56 -325 84 -511 110 -740 6 -49 15 -108 20 -130 14 -60 13 -105 -4 -105
-8 0 -19 12 -25 28 -6 15 -31 63 -56 107 -25 44 -55 98 -65 120 -11 22 -31 58
-43 80 -13 22 -39 70 -59 107 -48 90 -178 286 -238 357 -47 57 -189 181 -207
181 -5 0 -24 9 -44 19 -163 88 -357 56 -487 -79 -85 -89 -142 -252 -142 -409
0 -90 20 -231 41 -294 10 -31 19 -65 19 -74 0 -23 38 -149 61 -201 10 -23 19
-49 19 -57 0 -8 9 -34 19 -57 10 -24 29 -70 41 -103 24 -62 52 -125 126 -282
24 -51 65 -137 90 -190 41 -88 75 -150 139 -257 11 -19 37 -63 58 -98 20 -34
48 -81 62 -103 13 -22 34 -56 45 -75 39 -68 90 -141 240 -343 150 -203 175
-234 345 -422 88 -98 173 -193 189 -212 l29 -35 -2 -351 c-2 -409 -16 -890
-31 -1062 -5 -66 -14 -217 -20 -335 -5 -118 -14 -242 -20 -275 -5 -33 -15
-123 -20 -200 -6 -77 -17 -192 -25 -255 -8 -63 -17 -155 -20 -205 -3 -49 -12
-126 -20 -170 -7 -44 -16 -107 -20 -140 -3 -33 -15 -121 -26 -195 -35 -242
-58 -404 -64 -455 -3 -27 -11 -79 -19 -115 -8 -36 -24 -121 -36 -190 -12 -69
-29 -161 -37 -205 -18 -96 -48 -260 -68 -370 -7 -44 -21 -107 -29 -140 -9 -32
-16 -67 -16 -77 0 -10 -9 -51 -19 -91 -11 -39 -28 -112 -39 -162 -31 -136 -62
-271 -83 -360 -10 -44 -23 -100 -28 -125 -6 -25 -22 -88 -37 -140 -14 -52 -32
-120 -40 -150 -7 -30 -24 -93 -37 -140 -14 -47 -30 -107 -37 -135 -7 -27 -21
-76 -31 -108 -11 -31 -19 -64 -19 -72 0 -8 -9 -45 -20 -82 -12 -38 -30 -97
-40 -133 -41 -135 -73 -236 -85 -270 -12 -34 -41 -126 -87 -275 -12 -38 -29
-92 -38 -120 -52 -153 -61 -186 -61 -248 -1 -77 0 -79 53 -118 49 -35 96 -38
145 -8 53 33 77 77 153 287 11 29 28 77 39 107 11 31 29 79 39 108 47 127 76
205 93 249 11 26 19 55 19 65 1 10 9 36 20 58 11 22 19 46 20 54 0 12 72 237
101 316 6 17 17 50 24 75 8 25 21 68 30 95 24 75 40 130 70 235 41 142 70 242
121 410 9 30 22 80 29 110 7 30 25 100 40 155 15 55 33 125 40 155 19 81 44
177 66 250 11 36 19 73 19 84 0 10 9 53 19 95 11 42 29 121 41 176 12 55 30
136 40 180 50 214 84 384 106 524 8 51 17 98 20 103 4 6 12 47 19 92 7 44 20
119 28 166 36 191 57 318 57 341 0 13 9 74 19 134 27 152 59 377 66 455 3 36
12 110 20 165 8 55 19 146 25 203 5 57 14 112 20 122 5 10 40 42 77 71 441
348 801 712 1004 1017 27 41 49 76 49 78 0 3 11 20 25 39 32 41 177 325 195
380 7 22 16 45 20 50 4 6 11 25 15 43 3 18 13 45 20 60 8 15 24 70 36 122 34
142 33 341 -3 465 -46 163 -140 291 -253 345 -75 35 -162 55 -212 47 -111 -17
-158 -28 -179 -42 -13 -8 -29 -15 -35 -15 -7 0 -50 -26 -97 -57 -126 -86 -319
-294 -435 -469 -64 -98 -102 -142 -113 -132 -3 3 -5 127 -5 274 2 549 -35
1429 -74 1774 -7 69 -16 177 -20 240 -3 63 -11 151 -16 195 -6 44 -16 134 -24
200 -14 125 -32 270 -66 515 -10 80 -19 159 -19 176 0 26 28 66 143 210 78 99
160 206 181 239 21 33 51 79 67 102 16 23 29 43 29 46 0 3 26 45 58 93 32 49
76 127 99 174 23 47 71 145 107 219 36 73 66 138 66 143 0 5 7 24 15 41 8 18
21 52 29 77 8 25 26 77 40 115 72 193 140 435 162 570 3 22 12 63 20 90 18 68
39 292 36 390 -4 112 -20 245 -31 259 -5 6 -14 30 -20 54 -23 85 -116 220
-186 269 -95 67 -131 78 -250 77 -120 -1 -157 -13 -256 -81 -75 -52 -195 -192
-231 -267 -5 -12 -19 -37 -31 -58 -60 -100 -82 -142 -134 -258 -55 -123 -132
-328 -159 -425 -8 -27 -20 -70 -28 -95 -8 -25 -17 -61 -20 -81 -7 -38 -38 -75
-55 -65 -6 4 -13 23 -16 44 -5 34 -20 96 -60 247 -9 33 -22 87 -30 120 -8 33
-21 87 -30 120 -8 33 -25 96 -36 140 -12 44 -29 105 -39 135 -16 52 -38 122
-81 265 -10 33 -27 89 -38 125 -11 36 -32 106 -47 155 -14 50 -32 108 -39 130
-7 22 -25 81 -40 130 -15 50 -35 115 -45 145 -9 30 -27 89 -40 130 -12 41 -30
95 -40 120 -49 125 -60 156 -60 165 0 6 -7 23 -15 38 -8 16 -22 52 -30 79 -8
28 -19 56 -24 62 -5 6 -14 27 -19 46 -6 19 -23 67 -37 105 -15 39 -38 99 -51
135 -14 36 -31 83 -39 105 -30 87 -46 131 -55 150 -15 33 -65 167 -80 213 -15
46 -10 67 30 157 19 42 53 123 89 212 12 28 21 58 21 66 0 8 8 36 19 63 52
136 127 482 150 694 34 315 46 814 23 1025 -6 61 -16 178 -22 260 -6 83 -17
186 -25 230 -7 44 -16 105 -20 135 -11 98 -75 405 -105 505 -10 33 -28 94 -40
135 -12 41 -26 89 -32 105 -26 74 -45 121 -55 140 -6 11 -16 37 -23 58 -7 22
-18 51 -26 65 -8 15 -14 32 -14 38 0 24 -134 250 -187 316 -59 73 -182 179
-248 214 -135 72 -342 41 -473 -72 -48 -41 -122 -136 -122 -156 0 -7 -8 -27
-18 -43 -11 -17 -22 -48 -26 -70 -4 -22 -15 -76 -26 -120 -55 -239 -52 -1003
6 -1454 18 -139 11 -165 -27 -105 -47 74 -68 109 -78 129 -6 11 -21 36 -33 57
-13 20 -61 102 -108 182 -47 81 -94 162 -105 180 -11 19 -40 68 -65 111 -25
42 -50 84 -55 93 -6 10 -23 40 -39 67 -38 65 -158 249 -595 910 -47 72 -124
182 -172 245 -47 63 -117 158 -155 210 -90 123 -207 281 -371 500 -81 109
-117 154 -318 395 -45 55 -145 177 -221 270 -152 188 -330 395 -500 582 l-111
123 -6 243 c-5 244 -32 472 -70 603 -22 74 -48 184 -57 235 -9 51 -44 164 -85
274 -15 39 -33 90 -41 115 -8 25 -21 59 -29 77 -8 17 -15 36 -15 43 0 14 -26
71 -106 237 -35 72 -64 135 -64 141 0 5 -6 15 -14 21 -8 7 -17 22 -20 35 -6
24 -37 79 -86 156 -17 25 -33 52 -37 60 -3 8 -23 40 -43 70 -20 31 -39 63 -42
72 -6 15 -85 133 -171 256 -161 228 -396 458 -505 493 -20 6 -41 15 -47 19
-19 14 -135 50 -163 50 -46 0 -175 -31 -219 -53 -51 -25 -116 -87 -150 -141
-35 -55 -51 -116 -59 -223 -8 -116 6 -206 72 -443 9 -30 20 -59 25 -65 5 -5 9
-15 9 -23 0 -7 10 -37 23 -65 13 -29 34 -77 46 -107 13 -30 29 -68 36 -85 8
-16 25 -59 40 -95 15 -36 35 -83 45 -105 10 -22 23 -55 29 -72 9 -30 8 -33
-10 -33 -10 0 -45 24 -77 53 -31 28 -84 75 -117 102 -33 28 -123 104 -200 170
-77 66 -189 158 -249 205 -59 47 -200 157 -312 245 -111 88 -229 179 -261 203
-32 24 -96 71 -143 106 -273 203 -410 301 -615 441 -71 49 -163 112 -203 139
-41 28 -83 56 -94 62 -43 25 -88 73 -88 95 0 12 -9 50 -19 83 -19 62 -39 133
-86 306 -35 127 -76 261 -87 280 -4 8 -15 35 -24 60 -34 97 -45 126 -54 145
-5 11 -16 39 -25 63 -37 102 -47 129 -59 157 -8 17 -17 41 -21 55 -11 39 -152
325 -212 430 -75 131 -152 256 -195 315 -20 28 -57 79 -82 115 -121 172 -382
440 -526 538 -228 156 -488 180 -655 60 -57 -41 -129 -128 -161 -195 -39 -82
-45 -225 -15 -341 12 -45 21 -90 21 -99 0 -10 9 -35 20 -56 11 -20 20 -42 20
-49 0 -18 68 -161 144 -303 103 -193 122 -225 179 -310 34 -49 83 -123 110
-162 26 -40 52 -75 58 -78 14 -9 11 -45 -5 -45 -7 0 -35 12 -62 26 -256 138
-798 409 -1024 511 -30 14 -62 29 -70 34 -8 5 -22 12 -30 15 -18 7 -81 36
-205 94 -154 72 -169 78 -195 85 -14 4 -29 11 -35 15 -5 4 -41 20 -80 35 -38
15 -88 35 -110 45 -130 60 -155 70 -162 70 -4 0 -26 9 -48 19 -22 11 -65 29
-95 41 -30 12 -73 30 -95 40 -75 34 -230 93 -275 105 -14 4 -34 13 -45 19 -11
7 -33 16 -50 20 -16 4 -43 13 -60 20 -16 7 -64 26 -105 41 -41 15 -95 35 -120
45 -105 41 -156 60 -163 60 -10 0 -121 55 -169 83 -20 12 -102 60 -183 107
-81 47 -163 95 -183 106 -48 28 -123 65 -192 94 -30 13 -78 34 -107 47 -28 13
-55 23 -60 23 -4 0 -28 10 -53 21 -25 12 -58 28 -75 35 -16 7 -52 22 -80 34
-27 12 -72 29 -100 37 -109 32 -223 65 -275 78 -30 8 -95 26 -145 40 -224 64
-486 108 -746 125 -164 11 -460 11 -594 0z"/>
<path d="M26190 51170 c-25 -4 -74 -12 -110 -19 -36 -7 -110 -21 -165 -32 -55
-10 -136 -26 -180 -34 -44 -9 -120 -22 -169 -31 -49 -8 -92 -17 -96 -19 -4 -2
-40 -9 -81 -15 -41 -6 -117 -20 -169 -31 -90 -19 -136 -30 -342 -78 -49 -12
-127 -30 -175 -41 -49 -12 -122 -29 -163 -40 -112 -28 -208 -50 -275 -65 -67
-14 -183 -45 -265 -70 -64 -19 -167 -49 -262 -76 -153 -43 -206 -58 -273 -78
-136 -39 -211 -60 -255 -72 -25 -6 -49 -14 -55 -19 -5 -4 -26 -11 -45 -15 -19
-4 -48 -13 -65 -20 -33 -14 -105 -39 -175 -60 -43 -14 -85 -28 -197 -67 -29
-10 -77 -26 -105 -36 -29 -10 -75 -26 -103 -36 -27 -9 -70 -24 -95 -31 -118
-36 -269 -92 -495 -183 -96 -38 -260 -100 -285 -108 -14 -4 -41 -15 -60 -25
-19 -11 -39 -19 -45 -19 -5 0 -28 -9 -50 -19 -22 -11 -65 -29 -95 -42 -68 -27
-127 -53 -182 -79 -24 -11 -47 -20 -51 -20 -5 0 -34 -12 -65 -26 -199 -92
-197 -91 -263 -66 -30 11 -67 27 -84 36 -16 9 -36 16 -42 16 -7 0 -34 10 -60
21 -27 12 -61 27 -78 35 -30 13 -131 46 -260 85 -38 12 -95 30 -125 39 -67 22
-209 56 -270 65 -25 4 -81 15 -125 25 -157 36 -366 54 -635 54 -202 1 -270 -3
-330 -16 -41 -9 -97 -19 -125 -23 -51 -7 -174 -39 -210 -56 -11 -5 -36 -15
-55 -21 -159 -57 -317 -187 -382 -313 -35 -69 -40 -87 -58 -194 -11 -66 9
-181 45 -252 54 -106 183 -214 315 -264 41 -15 89 -33 105 -40 81 -34 254 -61
477 -75 89 -5 163 -12 165 -14 11 -10 -10 -45 -29 -52 -12 -3 -44 -20 -72 -37
-60 -35 -67 -39 -261 -152 -82 -48 -166 -96 -185 -108 -19 -11 -44 -25 -55
-31 -28 -15 -182 -111 -263 -164 -36 -24 -79 -51 -95 -60 -36 -21 -47 -27
-117 -73 -152 -100 -257 -166 -270 -172 -8 -4 -53 -34 -100 -67 -47 -34 -114
-81 -150 -106 -66 -45 -138 -94 -252 -173 -34 -24 -99 -69 -143 -99 -44 -31
-101 -71 -127 -91 -26 -20 -83 -63 -128 -96 -44 -33 -118 -89 -165 -125 -47
-36 -121 -92 -165 -125 -44 -33 -116 -88 -160 -122 -91 -73 -91 -73 -255 -44
-191 34 -256 42 -415 53 -172 12 -651 4 -715 -12 -22 -5 -94 -14 -160 -20
-115 -10 -149 -16 -330 -59 -44 -11 -100 -22 -125 -26 -25 -3 -61 -12 -80 -20
-19 -7 -78 -27 -130 -44 -52 -17 -117 -38 -145 -47 -68 -23 -251 -102 -300
-129 -22 -12 -56 -31 -75 -41 -46 -25 -207 -144 -244 -180 -53 -53 -134 -169
-157 -224 -32 -79 -33 -214 -1 -287 50 -116 101 -167 232 -233 140 -70 271
-88 505 -71 230 17 355 37 560 88 33 8 80 19 105 24 25 5 70 15 100 23 75 21
180 46 191 46 6 0 6 -7 0 -18 -10 -19 -257 -265 -417 -416 -145 -136 -695
-713 -880 -922 -337 -381 -391 -444 -529 -614 -77 -95 -169 -207 -205 -249
-36 -42 -102 -125 -148 -183 -46 -59 -90 -109 -97 -112 -8 -3 -69 -12 -137
-21 -68 -9 -148 -21 -178 -26 -97 -18 -244 -49 -275 -59 -259 -79 -354 -109
-373 -120 -9 -6 -37 -17 -62 -26 -25 -9 -63 -22 -85 -30 -32 -12 -173 -80
-465 -223 -8 -5 -24 -13 -35 -19 -11 -6 -45 -23 -75 -37 -30 -15 -89 -48 -130
-75 -63 -41 -139 -90 -229 -145 -30 -19 -106 -68 -161 -104 -72 -47 -481 -375
-545 -437 -359 -351 -550 -573 -645 -749 -15 -27 -41 -76 -58 -107 -45 -83
-47 -86 -73 -163 -19 -59 -23 -90 -23 -195 0 -120 2 -127 31 -185 82 -159 227
-245 413 -245 82 0 322 59 425 105 105 47 209 96 225 106 8 5 21 12 28 15 8 4
53 31 100 60 48 30 101 61 117 69 17 9 46 26 67 38 20 12 62 37 95 56 64 37
230 147 363 242 181 128 226 156 235 147 5 -4 -33 -74 -112 -206 -12 -20 -29
-50 -37 -67 -8 -16 -27 -48 -40 -70 -14 -22 -32 -53 -40 -70 -9 -16 -27 -50
-42 -75 -37 -63 -128 -221 -175 -306 -17 -29 -74 -141 -296 -574 -67 -129
-128 -248 -137 -265 -9 -16 -36 -73 -60 -125 -93 -205 -143 -313 -196 -425
-20 -44 -61 -134 -89 -200 -29 -66 -60 -138 -70 -160 -10 -22 -30 -69 -44
-105 -14 -36 -33 -79 -41 -95 -9 -17 -16 -35 -16 -42 0 -6 -7 -24 -15 -40 -8
-15 -26 -57 -41 -93 -14 -36 -32 -78 -39 -95 -8 -16 -28 -68 -46 -115 -17 -47
-37 -98 -44 -115 -7 -16 -25 -61 -39 -100 -44 -122 -77 -209 -92 -242 -8 -17
-14 -36 -14 -43 0 -7 -7 -26 -15 -43 -15 -34 -37 -93 -62 -167 -8 -25 -21 -58
-28 -75 -7 -16 -16 -46 -20 -65 -4 -19 -11 -39 -15 -45 -5 -5 -13 -30 -20 -55
-6 -25 -19 -67 -29 -95 -31 -85 -43 -118 -57 -165 -27 -92 -83 -241 -94 -255
-7 -9 -31 -24 -54 -35 -66 -31 -159 -84 -212 -121 -27 -19 -56 -38 -65 -44
-55 -34 -105 -72 -185 -142 -49 -43 -133 -115 -185 -159 -112 -97 -432 -436
-557 -590 -148 -182 -264 -351 -399 -579 -6 -11 -48 -94 -93 -185 -44 -91 -85
-172 -89 -180 -5 -9 -12 -31 -16 -50 -4 -19 -11 -39 -15 -45 -4 -5 -15 -33
-23 -61 -8 -28 -22 -65 -31 -82 -9 -17 -16 -41 -16 -54 0 -13 -9 -54 -19 -93
-42 -153 -53 -227 -48 -325 8 -152 42 -246 125 -340 54 -61 157 -115 239 -125
65 -7 174 18 253 58 200 102 478 406 752 825 35 53 44 61 55 49 12 -12 11 -27
-6 -98 -22 -88 -45 -211 -66 -344 -7 -44 -18 -100 -24 -125 -5 -25 -22 -121
-36 -215 -14 -93 -32 -208 -40 -255 -8 -47 -17 -110 -20 -140 -3 -30 -15 -111
-25 -180 -20 -130 -55 -425 -65 -545 -4 -38 -12 -110 -20 -160 -7 -49 -16
-139 -20 -200 -3 -60 -12 -168 -20 -240 -7 -71 -17 -193 -20 -269 -4 -76 -11
-153 -16 -170 -6 -19 -57 -79 -137 -161 -239 -242 -342 -356 -514 -568 -155
-190 -223 -286 -425 -592 -84 -128 -276 -505 -337 -663 -20 -51 -41 -101 -46
-110 -5 -9 -16 -44 -25 -77 -9 -33 -25 -94 -36 -135 -46 -176 -49 -408 -6
-530 35 -99 93 -200 139 -238 74 -63 212 -112 314 -112 165 0 343 118 518 343
42 54 91 123 109 153 42 72 49 83 71 119 11 17 38 59 60 95 23 36 47 75 53 85
7 11 34 65 60 120 92 191 148 298 158 296 6 0 13 -86 17 -218 10 -292 45 -858
67 -1070 6 -54 13 -143 16 -198 4 -55 13 -140 20 -190 8 -49 16 -124 20 -165
8 -107 42 -384 65 -530 10 -69 22 -150 25 -180 3 -30 12 -91 20 -135 8 -44 19
-116 24 -160 14 -103 46 -281 67 -370 13 -57 17 -141 19 -460 1 -228 7 -419
13 -460 7 -38 16 -123 21 -188 6 -65 17 -155 26 -200 9 -45 25 -129 36 -187
20 -103 26 -129 50 -220 37 -141 52 -194 81 -280 17 -52 38 -115 46 -140 8
-25 23 -64 33 -87 10 -24 19 -48 19 -54 0 -6 6 -23 14 -37 8 -15 24 -49 36
-77 37 -85 71 -159 87 -190 24 -48 86 -161 110 -202 13 -21 28 -49 35 -63 27
-55 159 -248 205 -301 67 -76 179 -177 222 -199 149 -78 223 -96 337 -81 196
26 332 201 363 466 11 97 -2 308 -23 385 -9 30 -16 65 -16 77 0 13 -9 49 -19
80 -10 32 -31 99 -46 148 -15 50 -33 106 -40 125 -8 19 -20 55 -28 80 -8 25
-24 69 -36 98 -52 130 -64 160 -77 197 -8 22 -21 54 -28 70 -8 17 -17 41 -21
55 -4 14 -23 59 -42 100 -19 41 -44 95 -55 120 -11 25 -31 68 -43 95 -13 28
-42 91 -65 140 -22 50 -48 104 -57 120 -8 17 -41 80 -73 140 -32 61 -73 139
-92 175 -20 36 -63 119 -98 185 -35 66 -79 149 -98 185 -32 60 -62 117 -190
360 -94 180 -114 216 -142 260 -17 25 -33 52 -36 60 -4 8 -15 26 -25 40 -17
25 -30 108 -79 500 -29 236 -58 518 -65 640 -3 58 -13 159 -20 225 -8 66 -19
230 -25 365 -5 135 -14 299 -19 365 -15 179 -24 837 -13 854 14 20 29 6 37
-36 4 -21 13 -49 20 -63 7 -14 27 -61 43 -105 94 -248 239 -437 390 -506 59
-27 78 -31 157 -31 95 0 139 15 220 76 31 24 107 130 138 191 60 119 61 439 2
720 -8 39 -19 93 -24 120 -5 28 -14 64 -20 80 -5 17 -22 71 -37 120 -14 50
-32 104 -39 120 -7 17 -15 46 -19 65 -11 55 -91 260 -147 375 -10 22 -19 44
-19 48 0 26 -131 286 -251 500 -22 38 -39 71 -39 74 0 2 -53 81 -118 175 -220
320 -206 293 -193 375 6 38 15 120 21 184 5 64 14 138 19 165 5 27 12 87 16
134 7 100 38 329 66 485 11 61 19 123 19 138 0 15 7 60 15 100 8 40 21 119 29
177 18 128 62 372 97 535 6 28 16 84 24 125 29 173 48 260 100 475 10 39 21
91 25 117 5 26 15 71 23 100 9 29 28 107 42 173 15 66 41 172 57 235 17 63 34
133 40 155 5 22 18 69 28 105 10 36 28 101 40 145 42 158 76 274 121 420 10
33 30 101 44 150 15 50 33 106 41 125 8 19 17 53 22 74 9 45 27 57 35 25 3
-13 1 -115 -5 -228 -8 -151 -7 -293 1 -531 11 -306 13 -332 41 -440 57 -222
75 -267 147 -357 91 -114 243 -154 399 -105 149 47 255 215 352 557 34 122 54
208 63 270 5 33 15 96 23 140 32 167 56 334 66 450 6 66 15 145 20 175 12 71
36 817 32 1030 -3 221 -21 602 -32 692 -5 40 -14 114 -19 163 -24 199 -67 430
-112 590 -26 96 -25 114 20 203 21 42 98 199 171 347 72 149 135 277 141 285
5 8 14 26 20 40 20 49 104 216 135 270 17 30 46 82 64 115 18 33 46 85 62 115
17 30 50 89 73 130 23 41 56 100 72 130 17 30 45 82 63 115 47 87 159 287 170
305 5 8 19 31 30 50 11 19 39 65 62 102 24 37 144 231 267 430 124 200 261
415 305 478 44 63 117 169 161 235 45 66 101 147 124 180 24 33 72 103 107
155 109 159 113 165 120 146 3 -9 -1 -31 -10 -50 -9 -19 -16 -42 -16 -51 0 -9
-9 -37 -19 -63 -10 -26 -31 -87 -47 -137 -15 -49 -35 -112 -45 -140 -36 -102
-99 -326 -99 -352 0 -10 -7 -46 -16 -78 -18 -70 -51 -279 -64 -415 -12 -120 1
-310 25 -365 78 -177 110 -223 201 -281 69 -45 147 -57 251 -40 43 7 92 20
109 29 112 58 211 147 305 272 82 110 209 319 268 440 64 131 116 243 139 300
61 151 112 288 112 298 0 6 9 34 19 62 31 82 101 308 101 330 1 11 7 38 15 60
9 22 22 69 30 105 8 36 26 106 40 155 14 50 32 126 39 170 20 116 45 250 62
330 18 88 50 377 64 577 6 89 7 264 3 419 l-6 266 69 74 c383 411 534 570 689
725 337 337 620 609 810 779 105 93 244 219 310 280 106 99 206 184 411 351
86 70 295 244 389 324 44 38 101 83 126 102 114 82 397 302 430 333 20 19 39
19 39 1 0 -8 -31 -60 -68 -117 -96 -145 -153 -236 -188 -294 -16 -27 -34 -59
-41 -70 -6 -11 -28 -54 -49 -95 -20 -41 -42 -82 -49 -90 -7 -8 -25 -53 -40
-100 -15 -47 -35 -101 -43 -120 -11 -26 -16 -74 -16 -190 -1 -146 0 -158 24
-205 14 -27 38 -67 54 -87 31 -42 118 -108 141 -108 8 0 38 -9 67 -21 45 -18
68 -20 158 -17 105 4 105 5 225 64 251 123 516 384 787 774 25 36 64 92 87
125 125 176 273 426 379 640 113 227 192 394 192 404 0 6 9 30 19 53 26 59 51
122 106 268 77 205 91 242 119 335 7 22 21 64 31 93 l20 54 155 87 c85 48 162
91 170 95 8 4 33 18 55 31 22 13 56 33 75 43 19 10 53 29 75 42 77 44 120 69
150 85 229 121 409 213 705 360 351 175 377 188 495 240 33 15 78 36 101 46
22 11 45 19 51 19 6 0 16 6 22 14 7 8 23 17 38 21 14 3 64 24 112 46 47 22
106 50 131 61 25 11 58 27 75 35 16 8 70 30 120 50 49 19 94 39 100 44 5 5 15
9 23 9 7 0 38 11 68 25 30 14 59 25 64 25 6 0 27 9 47 20 21 11 45 20 55 20 9
0 19 4 23 9 3 5 29 17 58 27 28 9 61 23 72 30 11 8 26 14 34 14 7 0 32 8 55
19 52 23 125 53 196 78 30 11 85 32 123 47 37 14 72 26 78 26 6 0 25 7 42 14
38 18 140 54 182 65 17 4 42 14 55 21 13 7 38 17 55 21 42 11 144 47 182 65
17 7 36 14 43 14 6 0 32 9 58 19 26 11 88 31 137 46 50 14 115 35 145 45 30
10 89 28 130 40 41 13 98 31 125 40 28 10 68 22 90 28 22 5 54 15 70 20 72 26
231 73 325 96 30 8 98 26 150 41 52 14 120 32 150 39 54 13 112 29 241 67 36
10 72 19 80 19 8 0 43 8 79 19 36 10 108 29 160 40 52 12 142 32 200 45 58 13
150 33 205 45 55 12 134 31 176 42 42 10 86 19 97 19 12 0 55 11 96 24 157 51
206 94 206 178 0 45 -4 54 -34 83 -47 44 -90 52 -196 35z"/>
<path d="M31110 47600 c-95 -14 -126 -24 -179 -54 -149 -85 -255 -188 -292
-283 -22 -56 -23 -73 -32 -613 l-10 -556 29 -254 c24 -223 28 -296 29 -580 1
-179 7 -638 13 -1020 7 -382 14 -821 16 -975 3 -331 9 -358 91 -441 74 -76
133 -95 311 -102 157 -5 237 7 404 60 240 77 337 135 480 285 89 93 143 171
183 267 16 39 40 86 52 106 101 154 168 857 104 1092 -17 66 -84 198 -150 299
-59 90 -236 280 -318 341 l-33 25 83 91 c131 141 217 304 278 527 27 97 31
135 41 332 20 428 13 500 -59 675 -36 84 -132 261 -199 363 -52 80 -294 327
-362 370 -107 68 -249 81 -480 45z m291 -612 c96 -89 178 -203 257 -358 l44
-85 -7 -235 c-7 -242 -19 -336 -57 -439 -46 -123 -151 -248 -283 -338 -55 -37
-157 -93 -170 -93 -3 0 -5 17 -5 38 0 20 -9 114 -20 207 -32 273 -43 611 -31
968 5 171 8 324 5 338 -7 31 10 46 68 64 88 28 101 23 199 -67z m29 -2199 c93
-21 345 -306 381 -431 9 -33 -7 -409 -22 -493 -10 -60 -76 -227 -127 -320 -17
-32 -39 -55 -59 -65 -21 -10 -33 -23 -35 -40 -2 -17 -16 -32 -43 -47 -39 -22
-217 -84 -281 -97 l-31 -7 -10 338 c-6 186 -11 464 -12 618 -1 154 -4 334 -7
400 l-6 120 58 16 c71 20 133 22 194 8z"/>
<path d="M24638 46626 c-58 -21 -85 -42 -112 -88 -40 -70 -55 -143 -66 -305
-5 -87 -21 -209 -36 -281 -46 -227 -25 -367 70 -450 44 -39 94 -49 160 -32
132 32 174 100 187 299 5 69 18 194 30 276 28 192 35 372 19 431 -18 64 -64
122 -113 145 -49 22 -88 23 -139 5z"/>
<path d="M33850 46071 c-100 -22 -229 -70 -356 -134 -79 -40 -101 -56 -156
-121 -88 -103 -165 -213 -236 -337 -55 -95 -61 -113 -68 -181 -8 -94 11 -160
63 -213 43 -44 121 -82 185 -91 105 -15 213 78 396 340 51 73 61 81 128 112
157 71 222 78 360 38 210 -60 335 -156 412 -316 39 -80 42 -92 42 -170 0 -118
-42 -349 -78 -435 -41 -96 -78 -153 -101 -153 -10 0 -108 12 -217 26 -131 17
-255 26 -364 27 -194 2 -242 -9 -424 -100 -210 -104 -324 -196 -444 -355 -56
-75 -93 -162 -152 -365 -34 -115 -42 -158 -47 -258 -14 -285 48 -445 212 -550
166 -107 351 -167 618 -201 118 -15 154 -16 240 -6 125 14 202 34 285 72 77
36 122 70 228 173 l81 78 7 -38 c3 -21 6 -69 6 -108 1 -174 32 -291 94 -362
50 -57 105 -84 183 -91 116 -9 207 53 251 170 20 54 20 64 11 444 -13 549 14
926 127 1779 41 310 41 390 0 520 -66 206 -250 473 -400 579 -128 91 -324 169
-557 220 -135 30 -211 32 -329 7z m129 -2181 c152 -14 311 -42 311 -55 0 -24
-92 -251 -132 -326 -48 -90 -151 -225 -194 -256 -44 -31 -119 -53 -182 -53
-117 0 -394 66 -434 104 -18 17 -20 28 -15 85 14 193 143 377 303 436 27 10
59 27 71 38 35 32 130 41 272 27z"/>
<path d="M26930 45985 c-199 -39 -307 -85 -446 -191 -187 -142 -235 -233 -326
-622 -6 -26 -8 -162 -5 -345 4 -340 10 -374 86 -525 96 -189 238 -299 449
-348 37 -8 90 -26 117 -39 59 -29 111 -41 228 -54 47 -6 130 -23 184 -40 54
-17 115 -33 135 -37 42 -7 125 -80 172 -150 34 -52 60 -219 36 -234 -10 -6
-13 -24 -11 -58 4 -84 -52 -164 -194 -273 -102 -77 -239 -120 -393 -121 -78
-1 -85 1 -125 31 -204 155 -295 169 -411 62 -41 -37 -76 -117 -76 -173 0 -82
34 -153 114 -233 113 -114 273 -190 426 -201 132 -10 479 62 590 123 137 74
317 228 396 339 55 77 116 208 138 294 47 185 21 482 -58 655 -47 104 -231
310 -321 361 -120 67 -347 137 -503 155 -79 9 -398 104 -442 131 -29 18 -58
79 -68 139 -12 79 3 438 23 549 l17 95 72 71 c83 83 146 118 248 140 111 23
137 21 215 -20 69 -36 69 -37 101 -115 58 -140 141 -249 220 -287 111 -52 263
14 297 130 27 91 21 136 -41 280 -31 72 -73 160 -94 196 -58 98 -180 210 -290
265 -151 76 -263 88 -460 50z"/>
<path d="M39308 45701 c-93 -78 -278 -452 -433 -876 -117 -319 -208 -546 -368
-920 -183 -428 -200 -480 -508 -1495 -87 -289 -178 -579 -201 -645 -42 -117
-43 -124 -43 -245 0 -109 3 -130 22 -165 49 -91 135 -139 253 -139 131 -1 183
42 243 199 60 157 177 524 222 695 24 91 59 203 78 249 l35 84 11 -39 c6 -22
33 -129 60 -239 94 -381 136 -607 156 -835 39 -433 100 -597 250 -666 151 -71
305 13 366 200 21 62 21 74 10 125 -57 257 -92 474 -130 811 -16 144 -31 215
-81 400 -102 375 -220 865 -220 914 0 8 15 17 35 20 60 12 245 76 420 148 94
38 229 91 300 117 245 89 353 162 401 266 62 135 27 265 -98 368 -41 34 -50
36 -135 43 -89 7 -92 6 -145 -24 -29 -17 -112 -53 -183 -81 -72 -27 -226 -89
-343 -136 -117 -48 -216 -85 -221 -83 -4 2 25 82 66 178 80 189 219 551 278
720 20 58 101 249 180 426 130 287 145 326 145 375 0 68 -28 131 -83 187 -65
67 -107 85 -212 90 -88 3 -91 3 -127 -27z"/>
<path d="M36528 45611 c-71 -23 -123 -72 -165 -156 -38 -73 -91 -268 -113
-410 -51 -332 -86 -469 -280 -1115 -175 -580 -259 -885 -291 -1060 -6 -36 -39
-155 -71 -265 -69 -228 -79 -319 -45 -407 48 -123 233 -203 355 -152 49 20 98
69 127 125 38 74 118 352 191 659 45 194 128 490 261 930 178 590 243 830 243
894 0 21 8 26 68 40 37 10 84 26 105 37 78 40 248 14 326 -49 55 -44 84 -107
115 -245 22 -97 23 -109 10 -163 -20 -86 -18 -183 6 -246 39 -106 149 -178
268 -178 134 1 219 90 268 280 13 52 15 94 11 205 -5 144 -25 258 -74 435 -31
114 -94 210 -218 336 -64 64 -98 89 -165 122 -126 62 -296 103 -452 109 l-128
6 -6 36 c-17 104 -68 173 -156 211 -57 25 -148 34 -190 21z"/>
<path d="M22872 44625 c-132 -29 -361 -160 -524 -299 -43 -36 -79 -66 -82 -66
-2 0 -7 11 -10 25 -10 40 -73 102 -121 121 -78 29 -185 2 -247 -63 -39 -41
-58 -94 -58 -165 0 -78 6 -95 312 -908 232 -614 358 -973 457 -1301 28 -91 71
-208 95 -260 24 -52 82 -193 130 -314 47 -121 98 -244 112 -272 51 -102 149
-164 233 -148 107 20 211 130 211 224 0 50 -97 308 -235 626 -42 95 -103 262
-139 380 -134 432 -389 1145 -525 1464 -17 40 -31 79 -31 87 0 15 176 177 295
269 121 95 177 118 273 113 137 -6 232 -68 382 -246 72 -86 154 -223 265 -442
216 -430 245 -503 551 -1399 63 -183 126 -355 141 -383 81 -149 224 -178 344
-70 58 52 88 108 89 164 0 20 -18 88 -40 150 -21 62 -112 325 -200 583 -210
611 -213 618 -347 904 -360 767 -575 1044 -917 1181 -142 57 -285 73 -414 45z"/>
<path d="M20170 43270 c-147 -31 -296 -94 -493 -207 -173 -100 -287 -245 -415
-528 l-55 -120 0 -200 c1 -274 19 -405 69 -486 52 -86 98 -114 188 -114 59 0
81 5 129 29 107 54 127 123 127 434 l0 212 41 83 c89 176 141 228 293 297 203
92 330 99 488 25 105 -48 134 -83 242 -283 73 -134 104 -229 112 -342 l6 -75
-118 -80 c-292 -197 -480 -357 -549 -465 -48 -74 -143 -284 -173 -382 -56
-181 -69 -393 -31 -528 39 -143 130 -362 181 -439 120 -177 246 -274 373 -287
114 -12 306 41 471 129 297 159 486 334 585 542 42 88 76 233 87 376 l7 89 62
-78 c169 -211 263 -282 371 -282 103 0 210 80 238 179 14 45 14 63 4 115 -7
33 -17 70 -22 81 -6 10 -120 155 -253 321 -332 412 -571 779 -1005 1547 -68
120 -96 160 -151 212 -115 108 -273 180 -496 225 -122 24 -201 24 -313 0z
m980 -1923 c83 -287 91 -514 23 -638 -46 -85 -82 -117 -241 -216 -86 -53 -159
-100 -162 -103 -3 -3 -14 -6 -25 -7 -11 -1 -32 -5 -47 -9 -42 -10 -72 17 -112
98 -87 177 -89 350 -6 523 15 33 31 73 35 90 11 52 163 189 334 303 84 57 155
101 158 99 2 -3 22 -66 43 -140z"/>
<path d="M44050 42920 c-14 -5 -57 -14 -96 -20 -86 -14 -197 -61 -310 -132
-69 -43 -107 -78 -201 -183 -208 -234 -538 -659 -748 -964 -55 -79 -131 -180
-170 -225 -39 -44 -104 -128 -144 -186 -41 -58 -114 -148 -163 -200 -98 -104
-541 -719 -609 -844 -82 -153 -133 -367 -160 -673 -15 -168 -7 -208 66 -351
94 -186 107 -201 285 -345 105 -84 188 -143 228 -160 157 -71 365 -36 613 101
89 50 101 60 201 180 59 70 127 146 152 170 61 58 106 150 106 217 0 105 -63
211 -154 262 -44 24 -61 28 -131 28 -66 -1 -91 -6 -140 -29 -51 -23 -68 -38
-114 -102 -96 -132 -240 -252 -317 -265 -14 -3 -43 13 -83 45 -80 62 -103 88
-136 147 -25 47 -26 51 -15 131 16 123 39 231 65 307 19 55 64 126 236 367
118 163 243 329 278 368 82 91 147 173 245 311 44 61 107 142 141 180 34 39
115 147 180 240 122 176 398 543 491 653 30 35 54 68 54 73 0 5 6 9 13 9 6 0
30 26 52 56 54 76 171 186 226 212 50 24 121 29 137 10 16 -21 23 -108 14
-184 -5 -43 -4 -77 2 -86 17 -28 -47 -157 -212 -427 -71 -115 -94 -181 -95
-266 -1 -80 15 -124 63 -179 49 -55 121 -88 206 -94 79 -5 128 13 175 65 31
34 212 316 297 465 116 201 126 252 120 601 l-4 244 -45 94 c-46 94 -112 190
-166 241 -35 33 -150 90 -249 124 -73 24 -138 29 -184 14z"/>
<path d="M17920 41201 c-156 -19 -480 -178 -576 -282 -88 -94 -199 -295 -228
-411 -46 -179 -61 -472 -32 -585 9 -34 16 -75 15 -90 -1 -15 8 -52 20 -81 12
-30 23 -73 26 -97 14 -157 285 -624 470 -810 68 -70 304 -230 447 -304 53 -27
129 -60 169 -72 41 -12 79 -26 85 -30 27 -21 153 -60 237 -74 211 -34 389 -14
540 61 88 43 297 213 405 328 156 168 243 465 228 781 -18 371 -33 442 -115
518 -82 76 -174 85 -295 29 -55 -26 -65 -35 -93 -88 -49 -92 -59 -162 -44
-297 6 -63 12 -168 12 -233 -1 -193 -34 -288 -133 -379 -180 -167 -265 -198
-442 -160 -92 19 -259 88 -384 159 l-103 57 18 24 c10 12 49 62 86 110 38 47
99 130 135 184 84 123 206 272 342 415 67 71 117 135 139 176 20 37 69 102
115 150 45 47 108 126 141 174 l60 89 0 76 c0 67 -4 85 -36 151 -125 261 -383
433 -743 495 -105 18 -374 27 -466 16z m409 -577 c88 -13 114 -21 153 -47 45
-31 46 -32 28 -52 -10 -11 -38 -51 -62 -90 -54 -85 -173 -235 -294 -370 -49
-55 -149 -183 -222 -285 -73 -102 -141 -196 -151 -209 l-19 -25 -21 41 c-34
67 -70 171 -102 293 -60 224 -48 393 37 567 32 64 43 77 92 105 30 17 70 32
87 32 18 1 40 8 49 15 52 43 231 54 425 25z"/>
<path d="M28955 40240 c-209 -13 -382 -39 -435 -65 -36 -18 -76 -24 -197 -33
-83 -7 -163 -16 -178 -22 -14 -5 -38 -10 -53 -10 -15 0 -58 -16 -96 -35 -43
-21 -84 -35 -107 -35 -21 0 -73 -7 -116 -16 -43 -9 -96 -19 -118 -23 -22 -4
-61 -19 -86 -34 -31 -18 -71 -30 -121 -37 -87 -11 -117 -21 -179 -61 -33 -21
-66 -32 -120 -39 -93 -12 -129 -24 -203 -69 -47 -28 -71 -36 -123 -39 -62 -4
-67 -6 -113 -53 -41 -41 -55 -49 -87 -49 -33 0 -62 -5 -150 -25 -13 -3 -38
-19 -57 -35 -41 -36 -95 -60 -135 -60 -19 0 -44 -13 -73 -36 -49 -42 -95 -64
-133 -64 -35 0 -62 -15 -107 -58 -32 -30 -47 -37 -99 -43 -56 -6 -66 -12 -110
-55 -42 -41 -55 -48 -105 -55 -47 -6 -64 -14 -98 -47 -47 -45 -67 -56 -115
-66 -19 -3 -53 -22 -77 -41 -23 -19 -69 -45 -101 -57 -32 -11 -74 -34 -95 -49
-20 -16 -54 -36 -76 -44 -23 -10 -57 -37 -81 -65 -28 -34 -54 -53 -79 -60 -20
-5 -49 -18 -63 -27 -52 -35 -134 -101 -154 -123 -11 -13 -52 -37 -90 -55 -39
-18 -77 -40 -85 -50 -8 -10 -38 -33 -65 -51 -28 -17 -57 -40 -65 -50 -8 -9
-34 -30 -58 -45 -24 -15 -62 -46 -85 -69 -223 -222 -256 -251 -305 -265 -39
-12 -66 -32 -133 -98 -46 -46 -118 -114 -159 -152 -118 -107 -542 -525 -575
-566 -16 -21 -63 -76 -103 -122 -43 -51 -79 -103 -88 -130 -9 -28 -33 -62 -62
-90 -85 -82 -244 -260 -282 -317 -13 -19 -33 -46 -45 -60 -12 -14 -30 -47 -39
-73 -11 -29 -31 -58 -52 -75 -19 -15 -47 -45 -61 -67 -15 -22 -45 -61 -68 -87
-80 -94 -97 -118 -120 -179 -14 -36 -43 -81 -68 -108 -25 -26 -56 -65 -70 -87
-31 -48 -74 -90 -107 -102 -15 -6 -147 -7 -320 -5 -315 6 -740 -9 -818 -28
-26 -7 -65 -24 -87 -39 -49 -33 -97 -50 -141 -50 -25 0 -46 -11 -84 -45 -50
-44 -58 -48 -133 -60 -26 -4 -55 -21 -91 -54 -39 -36 -65 -51 -96 -56 -23 -4
-56 -19 -73 -34 -18 -15 -48 -38 -67 -51 -44 -30 -130 -105 -195 -169 -35 -36
-62 -53 -90 -59 -60 -13 -144 -85 -412 -353 -395 -396 -523 -538 -548 -611 -9
-25 -35 -63 -63 -90 -26 -25 -70 -73 -98 -105 -28 -32 -77 -86 -108 -120 -31
-35 -56 -67 -56 -72 0 -5 -17 -31 -38 -58 -21 -26 -51 -75 -66 -108 -15 -33
-42 -76 -59 -95 -62 -66 -123 -155 -141 -204 -10 -26 -38 -70 -62 -97 -24 -27
-46 -61 -49 -74 -3 -14 -8 -37 -11 -52 -3 -16 -27 -50 -55 -78 -112 -113 -149
-163 -149 -201 0 -47 -23 -88 -63 -113 -18 -11 -42 -37 -54 -58 -12 -21 -34
-49 -48 -63 -15 -14 -41 -45 -58 -70 -16 -25 -40 -56 -52 -70 -12 -14 -30 -47
-40 -73 -12 -34 -41 -73 -97 -130 -44 -45 -92 -98 -106 -117 -15 -19 -88 -102
-162 -183 -91 -100 -145 -169 -166 -210 -19 -40 -40 -67 -58 -75 -15 -8 -42
-34 -59 -58 -21 -30 -44 -49 -75 -61 -31 -11 -77 -48 -147 -117 -57 -56 -145
-142 -196 -192 -130 -126 -180 -187 -206 -244 -15 -34 -34 -56 -62 -74 -23
-15 -41 -30 -41 -34 0 -4 -45 -54 -101 -112 -55 -58 -114 -125 -131 -150 -18
-25 -42 -58 -55 -73 -13 -16 -23 -40 -23 -53 0 -36 -27 -84 -70 -124 -32 -31
-39 -44 -45 -92 -4 -31 -14 -67 -24 -81 -9 -13 -28 -42 -43 -63 -22 -32 -29
-57 -37 -137 -7 -68 -16 -108 -30 -130 -11 -18 -27 -44 -36 -60 -32 -55 -39
-181 -39 -682 -1 -420 2 -505 17 -594 9 -58 17 -122 17 -144 0 -26 11 -58 31
-94 27 -47 33 -69 39 -156 5 -56 15 -128 23 -159 20 -74 76 -169 138 -235 27
-28 49 -57 49 -64 0 -7 9 -32 21 -55 18 -38 28 -46 89 -69 38 -14 89 -44 113
-66 35 -30 53 -39 82 -39 72 0 114 -20 161 -78 44 -54 54 -80 89 -231 9 -41
24 -86 34 -100 23 -34 51 -117 51 -153 0 -18 12 -42 35 -67 42 -47 65 -98 65
-148 1 -64 19 -124 51 -164 38 -48 59 -99 59 -143 0 -26 11 -47 45 -87 33 -39
47 -66 56 -108 8 -41 22 -68 50 -100 24 -27 46 -65 55 -97 8 -29 30 -72 49
-96 19 -23 44 -70 56 -103 12 -33 34 -76 49 -95 15 -19 35 -50 44 -68 19 -36
78 -104 165 -189 46 -45 55 -60 62 -103 6 -40 17 -61 53 -101 25 -28 52 -71
61 -100 19 -58 51 -98 193 -252 158 -171 302 -315 463 -461 126 -115 154 -136
200 -149 36 -11 66 -28 89 -53 50 -51 171 -131 222 -145 24 -6 71 -15 105 -19
57 -7 67 -13 135 -71 40 -34 114 -110 165 -168 50 -58 119 -134 153 -169 45
-47 64 -75 73 -110 10 -38 31 -66 117 -157 279 -292 461 -459 522 -477 22 -6
54 -27 71 -46 47 -51 81 -82 89 -82 4 0 35 -25 69 -55 34 -30 65 -55 70 -55 5
0 26 -15 46 -33 21 -19 60 -41 88 -51 29 -10 67 -33 91 -57 45 -44 86 -58 177
-59 42 0 53 -5 95 -44 26 -24 61 -50 77 -59 17 -8 51 -36 76 -61 44 -44 49
-46 102 -46 49 0 61 -5 108 -40 49 -37 59 -40 119 -41 212 -4 287 10 379 72
59 39 73 52 158 149 50 57 54 67 63 171 5 61 15 100 34 137 14 28 26 67 26 87
0 59 24 100 86 145 61 46 125 70 183 70 29 0 44 9 87 51 41 40 62 53 99 60 32
6 62 22 98 51 68 58 168 160 225 231 51 65 85 87 132 87 49 0 68 -16 85 -72
23 -80 20 -156 -11 -214 -42 -80 -74 -217 -80 -339 -7 -142 -8 -149 -49 -194
-45 -50 -54 -75 -64 -191 -6 -80 -13 -107 -36 -145 -39 -68 -56 -150 -64 -315
-6 -133 -8 -149 -33 -190 -41 -68 -114 -147 -166 -177 -44 -26 -55 -28 -217
-34 -176 -7 -214 -14 -275 -56 -19 -13 -66 -33 -105 -44 -38 -12 -86 -34 -105
-49 -47 -36 -85 -55 -144 -69 -28 -7 -65 -25 -83 -42 -42 -37 -97 -64 -146
-73 -20 -4 -52 -19 -70 -35 -17 -15 -48 -38 -67 -52 -19 -13 -53 -42 -76 -64
-341 -333 -414 -413 -414 -450 0 -41 -20 -78 -63 -121 -42 -41 -121 -128 -195
-214 -56 -66 -131 -183 -148 -232 -8 -24 -34 -70 -59 -102 -24 -33 -47 -73
-51 -90 -9 -44 -32 -86 -70 -128 -18 -21 -36 -49 -39 -63 -3 -14 -7 -36 -10
-50 -3 -14 -28 -50 -55 -80 -44 -49 -50 -60 -50 -100 0 -42 -5 -51 -60 -110
-33 -35 -60 -71 -60 -78 0 -8 -12 -32 -27 -53 -14 -21 -44 -79 -65 -128 -21
-49 -44 -96 -52 -105 -16 -19 -46 -106 -46 -135 0 -48 -23 -97 -61 -133 -22
-21 -52 -60 -66 -88 -14 -27 -31 -57 -38 -65 -13 -15 -40 -112 -50 -181 -3
-20 -16 -46 -31 -60 l-26 -24 -1244 -5 -1243 -5 -23 -22 c-22 -22 -22 -25 -19
-295 1 -150 7 -290 12 -311 7 -26 20 -44 42 -57 31 -19 57 -20 942 -20 748 0
921 -3 970 -14 33 -8 114 -19 180 -26 66 -6 174 -17 240 -26 191 -24 485 -29
575 -11 373 76 410 79 1041 75 l546 -3 43 -30 c24 -16 75 -68 114 -114 39 -46
106 -122 148 -168 43 -46 87 -102 99 -126 35 -68 85 -122 141 -152 90 -49 150
-95 223 -170 83 -86 116 -99 276 -110 101 -7 106 -9 155 -46 l51 -39 174 -5
c96 -3 273 -14 394 -25 347 -32 576 -26 744 20 22 6 72 31 112 55 40 25 87 50
106 56 18 6 56 26 83 44 27 18 73 42 102 53 29 11 79 36 112 56 32 19 81 43
109 52 29 9 74 32 102 49 27 18 74 44 103 59 48 24 128 90 253 208 54 50 143
171 178 242 29 56 49 71 113 85 33 8 1452 11 4662 11 4066 0 4621 -2 4673 -15
69 -18 100 -48 110 -108 4 -29 19 -55 48 -87 179 -197 252 -272 305 -315 34
-27 94 -79 134 -113 110 -99 284 -217 343 -234 18 -5 62 -27 98 -49 36 -22
111 -55 165 -74 54 -18 103 -36 108 -39 5 -3 44 -13 88 -23 70 -16 130 -18
549 -16 303 0 493 5 535 13 130 22 233 73 365 180 61 50 162 108 210 121 86
24 163 68 221 126 32 33 75 68 94 78 55 28 358 325 408 400 56 83 78 108 117
128 39 20 51 20 600 18 659 -2 712 -7 890 -72 59 -22 66 -22 580 -20 292 1
536 6 557 12 20 5 55 25 78 44 37 31 48 35 98 35 32 0 283 1 559 2 495 3 503
3 523 24 34 34 40 84 40 375 0 249 -2 279 -17 298 l-18 21 -913 1 -914 1 -25
22 c-18 16 -28 37 -34 74 -6 40 -18 64 -49 101 -35 42 -43 59 -49 110 -6 53
-12 65 -53 109 -41 44 -47 56 -53 108 -8 69 -27 125 -60 174 -13 19 -38 69
-56 110 -17 41 -37 82 -44 90 -7 8 -24 38 -38 65 -14 28 -45 70 -70 95 -39 40
-45 52 -51 104 -6 48 -14 64 -41 90 -44 42 -62 73 -70 122 -4 26 -19 54 -42
80 -37 41 -72 107 -73 136 0 9 -15 36 -33 60 -18 24 -43 60 -56 81 -13 21 -34
45 -47 54 -33 21 -61 70 -69 120 -3 23 -14 48 -22 55 -9 7 -32 38 -51 68 -20
30 -55 72 -79 93 -32 29 -47 52 -58 91 -9 29 -27 64 -41 77 -14 13 -34 40 -44
59 -25 48 -434 457 -510 509 -19 13 -51 39 -71 56 -20 18 -53 35 -75 39 -49
10 -80 26 -133 70 -24 20 -50 36 -59 36 -42 0 -98 25 -137 61 -46 43 -102 59
-201 59 -49 0 -57 4 -103 45 -55 48 -70 52 -196 58 -65 3 -89 9 -126 30 -33
19 -60 27 -95 27 -57 0 -84 15 -120 68 -87 130 -81 111 -86 244 -4 87 -12 141
-27 185 -12 34 -21 73 -21 85 0 13 -12 45 -26 72 -20 38 -28 72 -35 154 -10
109 -15 124 -73 197 -28 35 -30 42 -33 148 -2 74 -10 135 -23 179 -11 36 -20
81 -20 99 0 19 -13 52 -32 83 -31 47 -33 58 -36 150 -6 152 22 210 90 193 13
-4 85 -75 162 -162 77 -85 143 -155 147 -155 3 0 31 -20 60 -44 34 -28 72 -49
103 -57 35 -8 65 -27 103 -61 44 -40 60 -48 91 -48 61 0 124 -27 181 -77 69
-60 81 -91 81 -204 0 -73 4 -98 19 -123 11 -17 29 -62 41 -99 15 -48 36 -85
71 -125 27 -31 49 -60 49 -64 0 -13 68 -48 94 -48 33 0 94 -30 120 -59 26 -28
76 -41 167 -41 116 0 237 25 315 64 38 19 86 38 106 41 20 4 61 25 89 46 29
21 58 39 65 39 7 0 40 27 72 60 55 56 63 60 104 60 40 0 50 5 97 50 35 34 66
54 95 61 29 7 71 34 132 85 49 40 107 86 129 100 22 15 59 48 82 73 28 32 55
51 83 60 23 7 58 27 78 45 20 18 47 39 59 47 36 24 178 165 341 337 126 133
155 169 167 208 9 32 30 64 64 98 28 28 100 106 160 174 114 127 200 211 238
230 12 7 41 12 65 12 63 0 118 18 160 51 21 16 57 38 80 48 24 10 62 39 85 64
30 32 55 48 88 56 35 9 67 31 138 94 50 46 106 93 124 105 32 23 247 239 345
347 159 177 229 266 249 319 14 39 33 66 59 87 41 33 60 72 60 123 0 24 11 42
52 82 79 77 153 165 173 204 9 19 26 44 36 56 11 11 30 48 43 81 13 33 42 84
65 113 22 28 41 57 41 63 0 38 27 94 66 138 24 27 44 55 45 62 0 7 4 52 8 100
l8 89 45 39 c25 21 55 59 67 86 12 26 33 63 46 81 25 35 45 110 45 168 0 42
12 67 55 115 25 28 35 50 40 90 4 30 22 83 40 119 18 36 45 115 59 175 43 179
109 255 224 255 47 0 59 4 96 37 23 20 71 48 107 62 63 25 65 27 99 98 19 39
55 94 80 121 87 97 112 140 121 211 5 36 13 84 19 106 5 22 10 63 10 91 0 37
8 67 28 105 25 47 31 77 48 239 16 155 19 259 19 635 0 549 -4 604 -51 676
-19 29 -36 67 -38 84 -22 159 -27 181 -56 220 -38 51 -55 89 -64 144 -5 32
-18 57 -47 88 -45 49 -59 79 -59 129 0 35 -10 48 -153 207 -62 68 -85 93 -126
130 -17 15 -36 46 -42 67 -10 32 -67 95 -297 326 -236 237 -295 291 -339 310
-38 17 -62 37 -85 68 -17 25 -44 50 -59 56 -28 12 -69 79 -69 113 0 9 -35 51
-78 94 -43 43 -114 119 -158 168 -151 172 -287 320 -335 366 -41 38 -49 52
-49 82 0 56 -12 75 -109 177 -87 90 -111 129 -111 183 0 10 -20 39 -45 66 -25
26 -54 69 -66 96 -26 59 -98 165 -149 221 -20 22 -47 67 -59 98 -12 32 -38 78
-59 103 -20 25 -51 61 -68 81 -17 21 -45 58 -63 84 -17 26 -48 60 -68 75 -36
28 -63 75 -63 113 0 27 -146 206 -247 304 -33 32 -58 67 -68 96 -22 61 -56 94
-127 120 -94 34 -163 118 -182 220 -5 28 -34 64 -134 166 -116 121 -322 313
-436 407 -26 21 -63 43 -84 49 -23 6 -56 29 -88 61 -100 102 -285 241 -340
256 -24 6 -56 27 -79 51 -70 71 -215 141 -333 160 -33 6 -77 23 -107 41 -27
17 -75 38 -105 45 -88 23 -435 36 -840 32 l-374 -3 -23 34 c-13 19 -23 43 -23
53 0 32 -60 161 -90 193 -15 17 -48 62 -74 100 -53 82 -122 168 -190 238 -26
28 -57 70 -67 95 -20 46 -67 113 -134 191 -23 25 -52 62 -67 81 -14 19 -68 78
-119 131 -52 53 -103 107 -114 120 -12 13 -33 33 -49 44 -18 13 -34 40 -46 78
-11 33 -37 79 -62 108 -95 114 -642 651 -843 829 -21 19 -53 50 -70 68 -35 39
-74 62 -106 62 -13 0 -44 23 -79 58 -114 112 -155 148 -342 297 -31 24 -81 54
-111 65 -33 13 -68 35 -91 60 -20 22 -51 47 -69 56 -18 9 -45 28 -62 42 -16
14 -57 37 -90 52 -34 15 -74 42 -90 59 -17 18 -50 44 -75 59 -25 14 -59 38
-77 53 -17 15 -61 37 -97 49 -36 12 -84 37 -106 55 -22 18 -64 41 -92 51 -30
9 -72 34 -95 55 -26 24 -55 40 -80 44 -64 11 -73 15 -124 61 -27 24 -64 51
-82 60 -17 9 -41 24 -52 34 -17 16 -126 48 -215 65 -14 2 -49 25 -78 50 -30
25 -63 45 -75 45 -46 0 -98 22 -141 59 -36 31 -58 41 -109 50 -35 6 -82 11
-106 11 -35 0 -49 7 -85 40 -53 49 -87 60 -184 60 l-73 0 -54 51 c-51 49 -58
52 -124 59 -40 4 -86 17 -108 29 -110 62 -180 79 -321 81 -47 0 -57 4 -97 41
-37 34 -53 42 -107 49 -35 5 -83 10 -108 10 -30 0 -60 9 -90 27 -25 14 -67 29
-95 34 -27 4 -89 14 -136 23 -47 8 -172 18 -278 22 l-194 7 -46 36 c-33 25
-62 38 -101 44 -75 11 -1790 17 -1965 7z m1585 -803 c454 -39 576 -53 691 -81
138 -33 413 -86 447 -86 15 0 55 -13 90 -30 39 -18 100 -36 160 -45 124 -20
164 -30 232 -60 30 -13 96 -33 145 -46 50 -12 119 -36 155 -54 62 -32 84 -39
195 -64 28 -7 76 -28 107 -47 31 -19 92 -43 135 -54 43 -11 93 -31 113 -44 60
-40 118 -66 145 -66 29 0 94 -30 140 -65 17 -12 41 -25 55 -30 31 -9 268 -126
335 -166 28 -16 68 -34 90 -40 39 -10 84 -37 155 -90 19 -14 50 -31 69 -37 18
-7 72 -37 120 -69 169 -111 186 -122 214 -129 15 -3 51 -28 80 -54 29 -26 67
-55 85 -64 18 -9 50 -32 70 -50 20 -18 53 -38 73 -45 20 -6 49 -25 65 -42 16
-17 52 -47 79 -67 28 -20 89 -69 138 -109 48 -40 102 -80 119 -89 36 -18 145
-106 168 -135 8 -10 38 -35 67 -56 160 -117 668 -621 973 -968 47 -53 100
-110 119 -128 18 -18 44 -53 56 -78 13 -25 31 -51 40 -59 9 -7 28 -34 43 -59
14 -25 48 -71 75 -101 27 -30 58 -73 69 -95 11 -22 33 -53 48 -70 15 -16 66
-88 114 -160 47 -71 95 -142 106 -156 11 -15 28 -47 39 -70 10 -24 39 -70 65
-101 97 -119 95 -194 -10 -311 -52 -58 -58 -85 -52 -220 7 -145 31 -182 161
-251 58 -31 78 -36 133 -36 74 0 108 14 222 94 41 28 92 62 115 76 23 14 71
46 105 72 35 26 83 53 105 58 23 6 82 27 132 46 107 42 219 53 455 43 185 -8
366 -56 602 -160 143 -63 154 -69 208 -115 28 -24 70 -49 93 -55 24 -6 61 -29
87 -53 26 -22 77 -66 115 -96 204 -163 676 -631 852 -845 27 -33 58 -66 67
-74 10 -8 29 -37 43 -65 14 -28 51 -81 82 -120 31 -38 79 -101 108 -140 28
-39 84 -111 123 -161 73 -92 111 -146 177 -249 21 -32 53 -79 71 -103 19 -25
42 -66 53 -90 10 -25 39 -68 63 -95 27 -31 49 -68 55 -95 6 -24 26 -60 44 -81
19 -20 49 -59 67 -87 19 -27 48 -67 65 -87 18 -21 37 -55 43 -76 11 -36 154
-233 245 -337 24 -27 51 -64 60 -80 8 -17 25 -39 37 -50 13 -11 34 -39 49 -61
54 -85 549 -604 978 -1024 104 -102 203 -206 220 -230 17 -25 61 -74 98 -110
37 -36 78 -87 91 -113 14 -26 45 -74 70 -107 24 -32 51 -78 60 -102 8 -23 33
-75 54 -115 30 -54 44 -95 56 -165 9 -51 27 -127 40 -168 38 -122 46 -203 40
-407 -10 -375 -14 -389 -96 -400 -40 -6 -43 -4 -103 59 -59 62 -86 78 -149 92
-26 6 -167 -32 -218 -58 -14 -8 -51 -52 -84 -99 l-58 -85 0 -143 c1 -79 6
-172 13 -206 10 -47 10 -78 1 -130 -31 -186 -42 -279 -42 -350 0 -61 -6 -91
-26 -138 -36 -83 -49 -124 -79 -245 -14 -58 -39 -132 -55 -165 -17 -33 -35
-87 -41 -119 -6 -33 -27 -92 -46 -130 -20 -39 -48 -108 -64 -154 -15 -45 -36
-95 -47 -110 -10 -15 -44 -83 -75 -152 -32 -69 -75 -159 -97 -200 -22 -41 -63
-121 -90 -177 -28 -56 -54 -104 -59 -107 -5 -4 -28 -41 -52 -84 -23 -42 -57
-94 -75 -114 -18 -21 -37 -50 -40 -65 -4 -14 -71 -106 -150 -203 -78 -98 -149
-190 -157 -206 -8 -16 -27 -40 -42 -54 -15 -14 -45 -49 -67 -78 -22 -29 -54
-62 -71 -73 -60 -36 -116 -19 -130 38 -3 12 4 66 15 120 31 157 14 242 -66
336 -70 80 -125 107 -219 107 -101 0 -175 -29 -234 -89 -50 -53 -126 -199
-148 -286 -8 -33 -29 -93 -45 -134 -35 -86 -57 -172 -66 -267 -4 -38 -20 -103
-37 -144 -16 -41 -37 -98 -48 -127 -10 -29 -36 -79 -58 -111 -22 -32 -43 -76
-47 -96 -4 -24 -25 -60 -56 -98 -27 -32 -59 -80 -70 -105 -11 -26 -39 -70 -62
-98 -22 -28 -70 -87 -105 -131 -35 -43 -115 -133 -177 -199 -62 -66 -127 -139
-146 -162 -18 -23 -65 -66 -104 -97 -39 -30 -74 -62 -77 -70 -3 -8 -32 -34
-64 -57 -32 -24 -86 -68 -120 -99 -91 -82 -176 -151 -230 -187 -26 -18 -77
-53 -113 -78 -91 -63 -127 -78 -174 -72 -66 9 -78 51 -46 156 26 85 34 170 50
541 24 580 24 533 -1 675 -23 126 -25 131 -64 170 -22 22 -71 56 -109 75 -127
64 -222 44 -342 -70 -93 -89 -100 -113 -109 -385 -7 -243 -11 -264 -65 -381
-16 -33 -32 -72 -35 -86 -4 -14 -22 -40 -40 -58 -28 -28 -41 -32 -83 -32 -56
0 -77 9 -147 65 -92 75 -126 111 -193 207 -36 52 -87 121 -113 154 -28 34 -52
77 -58 103 -7 27 -27 61 -51 87 -22 23 -52 71 -68 107 -16 35 -37 70 -46 78
-10 8 -31 41 -47 73 -16 32 -46 77 -66 98 -23 27 -38 56 -44 85 -5 25 -27 71
-50 105 -24 36 -45 81 -50 108 -5 25 -27 74 -48 108 -22 35 -49 97 -61 140
-11 42 -31 100 -44 128 -36 78 -53 134 -66 216 -11 67 -22 111 -66 273 -17 64
-37 602 -29 827 9 287 23 410 85 750 10 58 21 132 25 165 3 33 22 112 40 175
19 63 39 146 45 185 6 38 21 96 34 130 37 97 76 236 87 309 5 38 23 99 39 136
37 85 58 166 67 253 5 55 12 75 35 105 46 57 49 67 64 183 8 69 23 131 39 171
37 89 51 144 74 298 11 76 31 161 44 195 18 43 26 89 31 165 4 58 13 141 21
185 7 44 21 159 30 255 9 96 23 215 32 264 14 75 15 103 5 190 -7 55 -12 135
-12 176 0 129 -59 215 -189 276 -76 37 -179 31 -266 -13 -75 -39 -106 -72
-142 -148 -26 -57 -28 -69 -34 -270 -4 -115 -15 -271 -24 -345 -8 -74 -20
-184 -24 -245 -12 -152 -47 -365 -76 -455 -13 -41 -36 -138 -50 -215 -28 -149
-39 -195 -86 -342 -16 -51 -32 -125 -35 -165 -5 -52 -16 -91 -39 -138 -18 -38
-39 -104 -49 -158 -10 -51 -38 -141 -61 -200 -30 -73 -47 -133 -54 -189 -6
-46 -20 -103 -31 -128 -36 -80 -60 -168 -70 -262 -5 -51 -17 -111 -26 -135
-56 -152 -62 -178 -78 -348 -9 -96 -25 -215 -36 -265 -37 -175 -51 -333 -57
-655 -3 -173 0 -403 5 -510 9 -171 14 -208 41 -296 17 -56 33 -138 37 -185 7
-96 29 -182 54 -219 38 -54 53 -98 60 -168 6 -61 13 -82 44 -126 35 -50 66
-130 66 -170 0 -17 77 -186 132 -290 13 -23 23 -65 26 -105 4 -56 0 -76 -23
-131 -16 -36 -32 -89 -36 -118 -4 -28 -28 -97 -53 -151 -26 -54 -51 -124 -56
-154 -5 -31 -27 -91 -48 -134 -25 -48 -46 -110 -56 -162 -13 -65 -24 -92 -50
-125 -46 -57 -56 -79 -56 -124 0 -29 -11 -56 -42 -103 -22 -35 -47 -82 -53
-104 -7 -22 -34 -74 -59 -115 -25 -41 -46 -79 -46 -86 0 -10 -95 -161 -160
-254 -9 -14 -28 -46 -40 -70 -13 -25 -65 -101 -117 -168 -51 -68 -102 -140
-112 -160 -11 -21 -34 -50 -51 -67 -18 -16 -40 -43 -50 -58 -33 -53 -594 -651
-738 -787 -213 -200 -284 -264 -317 -285 -30 -19 -83 -60 -158 -126 -23 -20
-67 -52 -97 -71 -30 -19 -80 -57 -110 -84 -30 -27 -77 -67 -105 -89 -27 -22
-63 -52 -80 -68 -16 -16 -52 -39 -80 -51 -27 -13 -59 -33 -70 -46 -11 -12 -36
-30 -55 -40 -19 -10 -62 -46 -95 -79 -33 -34 -63 -61 -68 -61 -4 0 -37 -20
-74 -45 -36 -25 -71 -45 -78 -45 -7 0 -44 -24 -81 -54 -38 -29 -85 -61 -104
-71 -19 -10 -48 -28 -65 -40 -30 -23 -100 -48 -165 -60 -19 -4 -71 -22 -115
-40 -44 -19 -115 -43 -158 -54 -42 -11 -92 -31 -110 -44 -17 -14 -48 -32 -67
-42 -77 -38 -98 -77 -60 -115 36 -36 187 -17 248 30 31 25 99 47 199 64 55 9
109 28 164 55 45 23 89 41 98 41 39 0 94 24 140 60 28 22 72 48 100 59 27 10
75 37 107 59 33 22 74 43 92 47 18 4 55 26 83 50 36 30 67 47 100 54 27 6 82
29 122 52 39 23 90 48 111 55 22 8 54 25 72 39 17 13 57 35 88 49 32 14 75 41
97 60 22 19 55 37 73 40 19 4 59 29 95 60 43 38 75 57 101 61 21 4 46 16 57
27 10 12 43 37 73 56 30 19 74 53 98 74 24 22 60 46 80 55 20 8 51 28 67 43
17 16 47 36 68 45 21 9 58 34 82 56 66 61 165 135 217 163 25 14 56 39 68 56
11 16 47 46 78 66 65 42 563 539 625 624 22 30 46 59 54 63 7 4 27 29 45 55
72 106 225 282 245 282 23 0 41 -40 56 -125 20 -112 33 -162 64 -244 15 -37
28 -102 33 -155 5 -50 21 -131 36 -181 16 -49 28 -110 28 -134 1 -39 -3 -47
-29 -62 -16 -10 -60 -23 -96 -28 -36 -6 -97 -25 -135 -42 -38 -17 -105 -40
-149 -51 -45 -10 -123 -41 -178 -68 -54 -28 -106 -50 -116 -50 -10 0 -52 -22
-93 -49 -41 -27 -85 -52 -98 -56 -12 -4 -39 -22 -59 -40 -20 -18 -79 -65 -131
-104 -52 -39 -147 -119 -210 -178 -102 -96 -152 -150 -316 -342 -23 -27 -44
-60 -48 -74 -3 -15 -23 -54 -44 -88 -63 -105 -99 -171 -137 -249 -39 -79 -55
-110 -103 -200 -16 -30 -32 -70 -35 -88 -4 -18 -25 -65 -48 -104 -33 -56 -43
-85 -51 -147 -6 -51 -22 -104 -47 -161 -41 -92 -61 -166 -61 -233 0 -23 -7
-67 -14 -97 -8 -30 -24 -93 -36 -140 -17 -65 -24 -130 -29 -271 -7 -169 -9
-190 -32 -234 -30 -60 -59 -82 -127 -95 -71 -13 -8536 -12 -8608 1 -78 15 -89
33 -90 143 0 80 -4 99 -32 158 -19 42 -35 98 -42 150 -6 45 -23 131 -36 191
-14 60 -29 153 -34 207 -9 96 -32 172 -72 240 -12 20 -26 72 -33 125 -10 72
-20 103 -50 154 -21 35 -44 90 -51 123 -15 65 -37 112 -64 143 -10 11 -28 46
-40 78 -12 31 -37 81 -57 110 -19 28 -40 65 -46 82 -12 34 -73 143 -92 165 -7
8 -22 33 -33 55 -11 22 -50 69 -86 105 -37 36 -78 85 -92 110 -24 43 -266 286
-349 349 -144 110 -438 283 -530 311 -22 7 -45 17 -51 22 -18 14 -136 58 -156
58 -10 0 -62 17 -115 39 -54 21 -119 41 -145 44 -73 10 -116 32 -124 62 -4 16
2 51 15 91 12 36 25 104 31 152 5 48 18 114 30 147 12 33 19 72 16 86 -3 18 6
50 29 97 25 52 36 95 45 167 12 93 26 125 54 125 24 0 205 -209 329 -380 70
-97 540 -567 637 -638 19 -14 56 -46 81 -71 42 -42 79 -69 177 -128 20 -12 64
-47 97 -77 33 -31 79 -66 101 -78 23 -13 59 -36 80 -51 55 -39 128 -90 204
-141 36 -24 74 -53 84 -65 11 -12 39 -26 63 -32 26 -7 63 -30 98 -60 36 -32
72 -53 101 -60 24 -6 61 -25 82 -41 20 -17 64 -44 97 -60 33 -17 72 -39 87
-50 51 -36 257 -135 305 -147 32 -8 62 -26 94 -56 41 -38 54 -44 120 -54 78
-13 129 -29 129 -40 0 -17 81 -51 144 -61 71 -11 132 -37 177 -75 17 -14 58
-28 115 -39 64 -13 107 -28 154 -56 54 -32 80 -40 155 -50 50 -6 112 -16 138
-22 61 -13 83 2 72 51 -8 40 -35 58 -104 71 -122 24 -184 44 -210 66 -15 13
-64 32 -112 44 -50 13 -110 37 -149 60 -37 22 -84 42 -110 45 -46 6 -214 75
-260 106 -14 9 -50 22 -80 28 -71 15 -100 35 -100 67 0 43 -28 94 -61 112 -18
9 -56 38 -86 65 -29 26 -60 47 -68 47 -8 0 -42 24 -74 53 -163 145 -202 176
-233 182 -23 5 -54 30 -101 78 -37 39 -87 84 -111 101 -69 48 -218 168 -251
202 -16 17 -44 40 -62 52 -40 28 -413 401 -470 470 -23 29 -59 66 -78 84 -20
17 -43 45 -52 62 -9 17 -59 74 -111 126 -116 116 -203 222 -236 287 -13 27
-32 55 -41 63 -9 8 -38 43 -63 79 -25 37 -59 81 -74 99 -15 18 -39 54 -53 80
-14 26 -57 94 -95 152 -39 58 -81 128 -94 156 -13 28 -42 78 -64 112 -21 33
-42 79 -46 100 -3 24 -20 57 -42 83 -49 58 -64 91 -64 137 0 38 -12 61 -71
141 -12 17 -27 61 -35 111 -11 62 -24 99 -55 151 -32 53 -43 84 -50 140 -6 51
-21 97 -53 162 -24 51 -47 112 -51 137 -4 25 -19 70 -32 100 -39 89 -40 132
-3 240 17 52 53 131 80 175 32 53 52 100 59 139 6 32 23 80 38 105 54 95 65
122 70 183 5 59 12 77 76 200 12 25 22 74 28 150 6 62 20 151 33 198 50 181
50 181 51 650 0 556 -8 718 -42 820 -16 47 -29 117 -35 190 -17 205 -34 301
-68 385 -21 53 -35 108 -40 165 -8 81 -30 161 -85 315 -13 39 -25 86 -25 106
0 42 -10 75 -55 184 -19 44 -43 126 -55 183 -12 56 -34 133 -49 170 -15 37
-31 85 -35 107 -4 22 -11 51 -16 65 -6 14 -23 86 -39 160 -16 74 -36 160 -45
190 -8 30 -24 87 -35 125 -11 39 -20 86 -20 106 -1 19 -12 62 -25 95 -15 38
-28 97 -35 164 -5 58 -17 148 -25 200 -22 139 -58 559 -65 755 -6 165 -8 173
-35 220 -39 67 -93 117 -160 150 -51 25 -64 27 -139 23 -100 -6 -146 -27 -210
-98 -83 -92 -91 -120 -96 -315 -2 -93 2 -217 8 -275 41 -371 63 -562 71 -610
5 -30 9 -78 9 -107 1 -33 10 -74 27 -110 15 -34 33 -108 44 -178 30 -188 41
-235 73 -314 16 -41 36 -123 46 -186 14 -89 25 -125 53 -176 24 -45 40 -93 52
-157 18 -98 34 -151 66 -217 11 -22 24 -74 31 -115 11 -71 18 -96 75 -250 13
-36 33 -119 45 -185 11 -66 33 -160 50 -208 19 -57 32 -126 39 -195 5 -59 19
-136 30 -170 11 -35 20 -75 20 -89 0 -13 9 -59 19 -101 14 -56 22 -146 30
-332 22 -498 10 -882 -33 -1062 -14 -57 -28 -125 -31 -153 -14 -105 -40 -191
-95 -310 -10 -22 -26 -74 -36 -115 -12 -52 -31 -95 -61 -140 -25 -38 -43 -76
-43 -93 0 -37 -23 -90 -64 -148 -19 -26 -38 -64 -42 -84 -4 -21 -24 -57 -49
-87 -24 -27 -57 -78 -73 -113 -17 -35 -35 -66 -41 -69 -6 -4 -28 -44 -49 -89
-22 -45 -51 -93 -66 -107 -15 -13 -35 -43 -46 -65 -10 -22 -55 -89 -99 -150
-45 -60 -97 -135 -118 -165 -50 -76 -156 -176 -201 -191 -20 -7 -63 -13 -94
-13 -68 -1 -98 22 -117 87 -7 23 -19 52 -27 64 -44 70 -55 125 -69 356 -12
197 -17 239 -40 307 -23 68 -34 86 -78 126 -79 71 -139 98 -217 98 -74 1 -138
-28 -215 -96 -49 -44 -58 -62 -81 -183 -15 -79 -16 -133 -11 -440 7 -371 26
-610 58 -736 19 -77 24 -134 13 -164 -4 -8 -20 -23 -36 -31 -43 -22 -92 -10
-141 35 -23 21 -57 46 -75 55 -18 10 -50 32 -70 50 -20 19 -54 41 -75 49 -44
19 -112 75 -251 208 -56 53 -121 111 -146 130 -25 19 -103 95 -175 169 -71 74
-150 155 -175 180 -25 25 -67 74 -93 110 -26 36 -66 88 -88 115 -76 95 -191
268 -237 355 -83 157 -104 205 -136 310 -20 63 -39 144 -42 179 -8 74 -29 145
-72 246 -16 39 -35 97 -41 129 -6 33 -20 78 -32 100 -12 23 -32 64 -46 91 -46
91 -96 140 -173 171 -59 23 -79 26 -142 22 -152 -11 -244 -88 -279 -236 -18
-76 -18 -78 3 -187 12 -62 18 -122 15 -137 -24 -96 -136 -67 -215 54 -23 35
-58 79 -78 98 -19 19 -52 58 -72 85 -19 28 -56 74 -81 104 -70 82 -138 180
-165 236 -13 28 -32 57 -41 65 -27 23 -145 204 -191 295 -22 44 -54 105 -70
135 -16 31 -49 98 -73 150 -24 52 -67 145 -96 205 -29 61 -63 141 -74 178 -11
38 -37 97 -57 133 -20 35 -42 94 -50 130 -7 37 -27 87 -44 113 -16 26 -34 70
-39 97 -16 82 -57 225 -86 299 -20 52 -29 100 -36 185 -5 63 -14 135 -20 160
-7 28 -11 114 -9 230 5 414 8 374 -37 471 -28 59 -52 94 -74 111 -46 33 -174
78 -225 78 -45 0 -111 -37 -181 -101 -76 -70 -159 -63 -176 16 -4 22 -7 177
-5 345 l4 305 31 100 c17 55 36 129 43 165 25 134 182 431 289 545 26 28 62
70 81 95 34 46 79 93 248 265 131 132 241 235 252 235 4 0 41 37 81 83 40 45
145 159 234 252 217 227 305 324 305 336 0 5 22 25 50 45 34 24 60 54 81 95
18 32 35 59 40 59 5 0 26 26 48 58 22 31 81 109 131 172 49 63 90 117 90 122
0 4 20 31 44 61 24 30 47 64 50 75 4 12 25 44 47 72 22 27 52 69 67 93 15 23
39 58 54 78 15 19 34 54 43 78 8 23 34 68 59 99 24 31 53 75 64 97 11 22 30
49 42 60 12 11 34 47 49 80 15 34 48 84 72 112 42 50 82 102 124 165 11 16 62
82 112 146 51 64 127 168 169 230 42 62 104 143 137 180 34 37 89 101 122 142
74 91 162 188 195 214 14 11 88 81 165 155 184 178 387 360 437 391 21 14 60
42 85 63 25 21 68 49 96 63 29 15 75 43 102 64 28 21 72 46 99 55 26 9 70 30
97 47 27 16 71 36 97 43 26 7 76 25 112 39 110 45 267 66 479 66 127 0 204 -5
241 -14 107 -28 275 -98 345 -146 40 -26 81 -51 93 -54 11 -4 56 -34 98 -66
98 -75 208 -116 291 -107 64 7 175 67 209 114 26 35 64 168 64 223 0 56 -20
99 -80 170 -105 127 -107 186 -8 318 22 30 48 72 59 95 10 23 41 74 68 112 27
39 74 109 105 158 31 48 84 121 118 163 35 42 80 103 101 136 21 34 62 88 92
120 30 33 55 65 55 72 0 30 247 297 685 740 302 305 459 448 584 532 25 17 56
43 68 57 12 14 57 49 100 78 43 29 130 98 193 152 63 55 131 107 150 115 19 8
52 30 74 49 21 19 53 41 72 49 18 8 56 34 83 58 27 24 67 50 88 56 21 7 56 28
78 45 22 18 72 50 110 72 39 22 86 50 105 62 19 13 66 42 103 66 37 24 89 52
115 61 26 10 78 37 115 62 37 24 91 49 120 56 29 7 77 30 110 53 38 27 73 43
104 48 54 8 92 25 144 66 20 16 64 37 97 47 32 11 81 35 107 56 26 20 59 36
72 36 45 0 137 32 203 70 48 28 81 39 123 43 34 3 78 16 105 31 118 62 156 78
212 86 32 5 85 22 117 39 36 19 87 35 132 42 41 6 128 29 194 50 124 40 208
59 357 80 47 6 123 22 170 34 47 13 130 28 185 35 55 6 147 20 205 30 58 10
164 21 235 25 72 3 157 10 190 16 213 35 883 33 1315 -4z m-7680 -18527 c69
-5 157 -16 195 -25 39 -8 92 -15 119 -15 34 0 76 -12 142 -40 52 -22 100 -40
107 -40 8 0 49 -22 93 -48 43 -26 99 -55 124 -65 65 -25 383 -261 475 -352 60
-60 135 -155 135 -171 0 -8 17 -33 38 -57 21 -23 55 -67 76 -97 20 -30 50 -71
66 -90 17 -21 33 -55 38 -81 6 -31 24 -67 54 -105 25 -33 51 -77 58 -99 7 -22
30 -72 51 -111 22 -39 39 -84 39 -101 0 -16 9 -54 20 -84 10 -30 33 -92 50
-139 16 -46 30 -96 30 -110 0 -14 13 -88 29 -165 16 -77 31 -169 35 -205 3
-36 13 -140 22 -233 l16 -167 -26 -71 c-17 -45 -26 -90 -26 -127 0 -78 -21
-153 -80 -286 -28 -62 -50 -115 -50 -119 0 -3 -32 -64 -71 -136 -69 -128 -72
-131 -157 -194 -48 -35 -107 -74 -132 -87 -25 -12 -75 -42 -111 -66 -37 -24
-93 -56 -125 -70 -33 -14 -77 -34 -99 -45 -22 -11 -78 -33 -125 -48 -47 -16
-110 -38 -140 -49 -83 -31 -275 -46 -479 -38 -205 8 -246 15 -366 60 -49 18
-124 45 -165 58 -127 43 -239 95 -294 138 -29 22 -57 40 -63 40 -15 0 -213
145 -240 176 -14 15 -23 38 -23 59 0 37 -35 85 -161 219 -84 90 -115 129 -209
262 -124 175 -166 221 -218 239 -119 42 -119 43 -222 180 -54 72 -106 137
-115 145 -9 7 -40 15 -69 18 -45 4 -57 1 -75 -17 -31 -31 -35 -65 -17 -139 28
-117 19 -141 -59 -160 -22 -5 -204 -11 -405 -11 -350 -2 -366 -1 -397 18 -47
29 -43 58 21 165 30 50 60 111 67 136 7 25 32 76 56 115 24 38 43 77 43 86 0
22 53 123 85 161 13 16 29 46 35 67 5 21 32 68 59 104 26 36 54 86 61 111 12
44 67 108 143 167 15 11 42 49 59 83 17 33 41 75 54 92 13 17 35 68 48 115 14
46 43 120 66 164 23 44 48 97 55 117 17 46 117 199 165 253 20 22 47 56 60 75
42 62 258 269 297 285 21 9 61 38 88 65 28 27 69 56 93 64 23 8 58 27 77 41
38 30 124 65 158 65 12 0 58 16 102 36 52 23 108 38 160 45 44 5 107 15 140
21 145 28 311 33 515 18z m14565 -21 c66 -10 139 -19 162 -19 43 0 116 -23
188 -60 21 -11 45 -20 52 -20 20 0 121 -47 150 -70 15 -11 45 -29 67 -39 23
-10 66 -39 96 -65 30 -26 71 -56 90 -66 54 -28 234 -208 295 -296 17 -24 51
-71 78 -106 69 -91 118 -172 157 -258 19 -41 44 -91 56 -110 11 -19 29 -64 38
-100 35 -131 124 -276 209 -341 50 -38 89 -87 101 -129 4 -14 22 -47 40 -75
58 -89 70 -109 98 -160 43 -78 88 -175 94 -204 4 -14 26 -57 49 -96 24 -38 46
-88 50 -110 4 -22 29 -73 56 -114 64 -98 76 -134 55 -166 -9 -14 -32 -28 -53
-34 -22 -5 -200 -9 -410 -8 -360 2 -372 3 -400 23 -35 26 -39 50 -19 109 19
54 20 134 3 156 -31 40 -96 51 -148 24 -16 -9 -63 -62 -105 -118 -121 -165
-129 -174 -183 -192 -66 -22 -97 -47 -112 -93 -33 -99 -82 -164 -245 -325 -90
-88 -171 -177 -181 -196 -10 -20 -33 -58 -50 -85 -18 -26 -33 -54 -33 -61 0
-12 -36 -46 -116 -111 -56 -45 -266 -174 -282 -174 -8 0 -54 -22 -102 -50 -60
-34 -114 -56 -175 -70 -48 -12 -113 -35 -143 -53 -60 -34 -91 -38 -402 -52
-190 -10 -381 12 -475 53 -39 16 -101 37 -140 47 -81 20 -93 25 -160 76 -30
22 -67 40 -92 44 -43 7 -60 18 -188 120 -38 30 -93 73 -122 95 -41 32 -55 50
-67 88 -22 72 -81 223 -104 267 -11 22 -33 81 -50 130 -17 50 -42 123 -56 162
-14 40 -26 85 -26 100 0 17 -18 51 -45 87 l-45 60 6 125 c3 69 11 171 19 226
7 55 17 129 20 165 8 82 46 243 91 384 19 61 39 125 44 142 6 17 10 39 10 50
0 11 16 53 36 94 20 41 44 98 54 125 10 28 38 86 64 130 25 44 46 84 46 89 0
8 111 175 191 286 73 101 289 321 335 341 24 10 51 30 60 44 10 15 46 45 81
67 35 22 63 43 63 48 0 14 76 60 101 60 27 0 48 11 108 57 28 21 66 37 114 48
40 9 101 29 137 45 76 35 137 49 202 50 26 0 59 5 75 11 80 31 487 30 688 -2z"/>
<path d="M25730 31346 c-25 -7 -81 -25 -125 -39 -44 -14 -107 -33 -139 -42
-64 -18 -266 -124 -306 -160 -14 -13 -38 -30 -55 -38 -74 -37 -271 -263 -357
-410 -23 -39 -100 -235 -122 -312 -41 -138 -49 -225 -42 -471 7 -224 14 -272
54 -350 11 -22 32 -77 46 -124 15 -47 39 -105 53 -129 41 -70 152 -221 203
-276 25 -27 63 -72 84 -98 24 -31 57 -57 90 -73 28 -13 74 -42 101 -64 28 -22
74 -47 102 -56 29 -8 55 -20 59 -25 11 -19 120 -66 167 -72 27 -4 81 -18 120
-32 55 -20 112 -29 242 -40 191 -16 247 -11 365 30 41 14 105 32 142 40 98 20
292 112 362 172 22 18 43 33 48 33 14 0 160 138 220 208 91 107 165 214 193
283 15 35 37 78 49 94 25 32 50 105 61 170 3 22 18 76 32 119 25 76 25 85 20
260 -3 100 -10 199 -16 221 -20 79 -49 211 -55 255 -4 27 -23 69 -46 105 -22
33 -46 80 -55 104 -8 24 -33 63 -54 87 -22 23 -51 65 -65 92 -15 30 -47 68
-78 94 -29 24 -78 68 -108 98 -63 63 -159 136 -240 183 -64 37 -145 69 -325
129 l-130 42 -225 3 c-166 2 -237 -1 -270 -11z"/>
<path d="M33485 31346 c-66 -15 -154 -44 -170 -57 -6 -4 -49 -20 -95 -35 -138
-43 -270 -131 -448 -296 -95 -88 -137 -136 -182 -206 -33 -50 -64 -109 -69
-130 -6 -21 -30 -65 -55 -97 -36 -50 -46 -72 -55 -130 -6 -39 -19 -95 -29
-125 -35 -103 -45 -201 -39 -370 4 -113 12 -183 27 -242 11 -46 28 -111 37
-146 8 -34 29 -81 45 -103 16 -23 41 -71 54 -107 14 -36 38 -81 55 -99 16 -19
38 -50 48 -71 11 -20 73 -94 139 -163 86 -90 137 -134 179 -157 33 -17 68 -41
79 -53 10 -12 55 -39 99 -61 44 -21 100 -49 125 -63 25 -14 72 -30 105 -36 33
-6 89 -22 125 -34 48 -17 104 -26 215 -34 185 -12 268 -4 409 43 58 20 116 36
129 36 43 0 97 21 142 56 25 19 68 43 95 53 27 10 71 35 97 54 26 19 64 42 84
50 20 8 54 36 75 63 21 26 62 71 89 99 109 110 235 307 275 430 16 50 41 119
57 155 l28 65 0 310 c0 264 -3 317 -17 355 -9 25 -32 88 -51 140 -52 145 -88
216 -162 325 -74 109 -230 276 -285 305 -19 10 -66 41 -104 70 -80 59 -186
109 -301 141 -44 11 -84 25 -90 29 -5 4 -32 15 -60 25 -67 24 -506 32 -600 11z"/>
<path d="M29445 29845 c-66 -14 -143 -29 -172 -35 -29 -6 -83 -12 -122 -14
-59 -2 -81 -9 -163 -50 -72 -36 -109 -48 -163 -54 -57 -6 -81 -15 -128 -46
-31 -21 -76 -44 -100 -51 -61 -18 -234 -104 -288 -142 -25 -18 -73 -45 -105
-60 -32 -14 -88 -50 -124 -78 -83 -66 -201 -145 -217 -145 -6 0 -24 -15 -40
-34 -15 -18 -46 -45 -68 -59 -22 -14 -60 -46 -84 -71 -24 -25 -47 -46 -51 -46
-5 0 -59 -55 -120 -122 -142 -156 -212 -232 -261 -284 -21 -23 -39 -49 -39
-57 0 -9 -11 -29 -25 -45 -14 -16 -38 -62 -54 -101 -16 -40 -41 -83 -56 -97
-33 -31 -58 -90 -50 -121 5 -20 11 -24 37 -21 26 2 39 14 72 62 41 58 66 76
196 136 88 41 155 81 185 109 50 48 225 173 320 230 50 29 119 73 155 96 36
24 83 48 105 54 23 6 67 34 102 63 34 29 83 61 110 70 27 10 76 35 110 57 33
21 70 42 82 46 12 3 60 24 106 46 47 21 97 39 111 39 13 0 64 15 112 34 48 18
112 39 142 46 30 6 82 21 115 31 75 23 179 43 365 69 304 42 862 16 1010 -48
25 -11 79 -23 120 -27 46 -5 123 -24 202 -52 71 -24 152 -48 181 -53 64 -13
301 -123 342 -161 18 -17 55 -33 95 -43 35 -9 85 -30 110 -45 25 -16 65 -39
90 -50 25 -12 71 -43 102 -70 32 -27 72 -53 90 -56 49 -11 140 -59 168 -90 27
-30 133 -85 163 -85 26 0 54 -17 120 -72 32 -26 64 -48 72 -48 26 0 258 -213
302 -277 17 -25 72 -44 102 -36 25 6 35 35 27 78 -7 36 -125 179 -291 355
-100 104 -125 137 -145 190 -17 46 -78 140 -91 140 -5 0 -30 20 -54 45 -25 24
-59 52 -77 61 -17 9 -59 46 -93 81 -34 36 -80 77 -102 92 -22 14 -75 54 -118
89 -43 34 -83 62 -89 62 -6 0 -47 22 -91 49 -205 127 -467 259 -546 276 -18 4
-57 23 -88 43 -42 27 -71 38 -117 43 -43 4 -93 21 -165 55 -98 45 -109 48
-199 51 -61 2 -129 12 -192 29 -118 31 -235 41 -508 42 -180 1 -220 -2 -325
-23z"/>
<path d="M28986 28089 c-78 -8 -99 -14 -172 -54 -46 -25 -94 -45 -108 -45 -27
0 -84 -36 -141 -89 -22 -21 -57 -48 -77 -60 -41 -25 -130 -120 -236 -256 -51
-65 -73 -101 -77 -130 -4 -22 -28 -76 -53 -120 l-47 -80 -3 -184 c-4 -202 1
-237 49 -311 15 -25 41 -77 57 -116 16 -39 52 -101 80 -140 29 -38 75 -104
103 -146 28 -43 69 -92 91 -110 22 -17 58 -54 80 -82 72 -92 361 -347 493
-436 28 -18 76 -52 109 -74 94 -66 169 -111 206 -126 19 -7 46 -21 60 -30 14
-10 57 -33 95 -53 39 -19 77 -43 86 -53 22 -26 43 -276 29 -359 -19 -124 -39
-178 -95 -255 -18 -25 -40 -62 -49 -83 -21 -50 -140 -215 -178 -246 -17 -13
-39 -45 -50 -70 -21 -51 -138 -168 -227 -229 -29 -20 -70 -48 -90 -62 -20 -14
-67 -47 -104 -73 -37 -27 -95 -57 -130 -69 -34 -11 -86 -31 -115 -45 -122 -57
-378 -103 -617 -110 -173 -5 -189 -3 -396 31 -219 37 -364 70 -385 87 -7 6
-47 24 -91 42 -118 49 -354 214 -385 270 -8 14 -12 74 -12 162 -1 138 -2 142
-33 206 -39 79 -102 140 -181 177 -50 24 -70 27 -158 27 l-101 0 -59 -40 c-62
-43 -152 -145 -180 -204 -15 -31 -16 -47 -7 -118 8 -66 16 -89 40 -120 16 -21
41 -59 56 -85 15 -26 41 -56 57 -68 17 -12 39 -38 49 -58 11 -21 33 -55 51
-77 17 -22 38 -55 46 -73 21 -50 160 -198 218 -231 28 -16 62 -41 75 -55 14
-14 30 -26 36 -26 6 0 44 -25 84 -55 40 -30 94 -66 119 -79 26 -13 66 -33 89
-46 23 -12 74 -26 113 -31 77 -9 96 -17 152 -62 31 -25 51 -31 135 -41 107
-13 151 -31 182 -74 45 -64 36 -112 -26 -132 -42 -14 -89 -54 -137 -116 -17
-23 -74 -95 -127 -160 -133 -165 -159 -204 -218 -321 -67 -134 -91 -240 -91
-393 0 -125 37 -284 84 -355 11 -18 40 -66 64 -106 112 -192 134 -218 275
-334 155 -127 179 -144 227 -161 25 -9 63 -24 86 -35 22 -10 84 -30 136 -44
53 -13 125 -35 160 -49 36 -13 91 -29 124 -36 32 -6 82 -16 109 -22 28 -5 93
-23 145 -38 134 -40 222 -50 454 -50 227 0 278 7 386 51 51 21 112 35 190 45
271 36 337 61 565 219 32 22 74 51 94 65 35 24 227 170 314 238 23 18 67 50
97 70 116 77 271 213 335 292 28 35 73 88 100 120 28 31 65 77 83 101 18 24
81 109 140 188 135 182 177 243 207 301 27 53 58 81 136 125 60 32 184 85 202
85 16 0 296 139 342 170 22 15 58 39 80 54 96 63 145 104 220 182 86 88 126
114 176 114 44 0 148 28 179 49 43 29 95 49 146 56 45 7 117 40 154 70 8 7 40
20 70 29 30 9 79 33 109 54 29 20 68 46 85 57 90 56 181 134 248 213 41 48 81
98 88 112 7 14 28 43 45 65 18 22 42 58 53 81 12 23 32 48 46 57 14 10 43 43
66 74 22 32 49 69 60 83 15 19 21 47 26 120 8 118 -4 146 -99 238 -170 163
-353 168 -510 14 -101 -99 -132 -188 -102 -300 24 -95 11 -128 -88 -230 -45
-46 -100 -93 -122 -104 -22 -12 -54 -31 -70 -44 -17 -12 -66 -38 -110 -57 -44
-19 -93 -42 -110 -51 -16 -9 -38 -16 -48 -16 -20 0 -99 -21 -177 -47 -37 -12
-401 -52 -505 -55 -67 -2 -297 22 -395 42 -180 36 -229 50 -298 86 -37 19 -85
39 -107 45 -42 11 -214 120 -278 176 -20 18 -41 33 -46 33 -17 0 -198 184
-216 219 -9 18 -51 70 -93 115 -47 50 -88 105 -105 141 -34 71 -40 83 -84 155
-46 75 -63 135 -75 265 -7 81 -7 133 2 195 17 123 21 132 73 165 84 54 171
101 217 118 25 9 68 35 97 56 29 22 67 48 85 57 18 9 46 28 63 42 16 14 48 33
70 42 111 48 656 606 729 748 8 16 27 43 40 59 14 17 39 65 56 106 17 42 44
98 60 125 37 58 50 131 50 277 0 158 -11 213 -56 275 -21 29 -45 75 -55 104
-34 106 -252 349 -387 434 -24 15 -63 43 -87 64 -33 27 -62 40 -117 53 -40 9
-86 25 -103 35 -16 10 -60 28 -96 40 -60 20 -81 21 -265 18 l-199 -3 -75 -38
c-42 -20 -104 -42 -139 -48 -57 -10 -69 -17 -110 -59 -38 -39 -56 -49 -91 -55
-59 -9 -94 6 -151 61 -33 32 -56 46 -85 51 -21 3 -77 25 -124 50 -77 39 -95
44 -190 53 -123 11 -241 11 -364 -1z m1244 -4233 c26 -50 28 -52 188 -132 29
-15 82 -53 118 -85 35 -33 71 -59 79 -59 7 0 33 -17 57 -37 24 -21 68 -48 98
-61 30 -13 75 -34 100 -46 25 -13 79 -31 120 -41 159 -37 176 -59 166 -209 -9
-122 -34 -177 -113 -242 -62 -50 -98 -91 -133 -150 -14 -23 -47 -74 -75 -113
-27 -38 -62 -89 -77 -113 -15 -24 -48 -68 -73 -98 -25 -30 -60 -75 -77 -100
-17 -25 -68 -85 -112 -134 -44 -49 -99 -114 -122 -144 -28 -38 -74 -78 -140
-124 -214 -146 -417 -284 -447 -302 -18 -11 -90 -58 -161 -105 -71 -48 -154
-102 -186 -122 -62 -41 -162 -83 -228 -98 -49 -10 -529 3 -664 19 -63 7 -108
7 -160 -1 -88 -14 -150 -7 -260 27 -112 34 -270 113 -360 181 -28 21 -76 56
-107 78 -183 129 -211 164 -277 330 -26 66 -28 79 -28 230 l-1 160 39 79 c33
68 60 102 194 240 376 388 382 392 522 407 64 6 135 29 210 68 8 4 30 30 47
57 32 49 97 94 134 94 10 0 63 17 116 39 54 21 128 48 164 59 36 11 83 32 104
46 21 14 42 26 47 26 6 0 60 24 122 54 92 45 120 64 166 114 31 33 67 63 80
65 101 19 129 26 158 38 69 29 97 -35 68 -154 -52 -206 -70 -261 -104 -304
-19 -24 -35 -60 -42 -96 -8 -39 -23 -71 -46 -100 -18 -23 -39 -53 -45 -67 -67
-156 -127 -239 -208 -295 -37 -25 -79 -61 -94 -80 -15 -19 -47 -43 -71 -54
-104 -45 -194 -135 -232 -230 -20 -51 -9 -86 43 -131 39 -35 41 -35 91 -14 20
8 64 21 97 29 151 34 250 70 305 111 30 23 78 53 105 67 28 14 60 36 73 50 13
13 40 32 61 41 21 10 45 30 54 46 10 16 33 38 52 50 20 12 42 35 50 51 8 15
33 42 55 60 22 18 42 44 45 60 4 16 21 44 38 63 18 19 41 58 52 87 11 29 34
71 50 94 17 22 42 73 55 113 12 41 34 90 47 109 14 20 30 68 38 112 23 117 35
172 51 221 8 25 18 98 23 162 6 65 15 127 21 138 30 57 102 39 140 -34z"/>
<path d="M14598 40064 c-4 -3 -57 -12 -120 -19 -234 -27 -318 -89 -492 -364
-66 -105 -80 -134 -97 -209 -11 -48 -22 -134 -26 -192 -6 -119 10 -203 52
-277 14 -23 199 -210 413 -417 349 -338 407 -390 597 -533 152 -114 256 -202
375 -318 91 -88 284 -268 430 -400 146 -132 440 -402 654 -600 540 -499 519
-481 584 -506 73 -27 151 -22 227 16 62 30 210 179 275 278 86 129 216 441
242 576 6 33 8 127 5 226 -5 179 -19 252 -72 375 -13 30 -26 71 -29 91 -4 19
-28 72 -54 117 -89 154 -192 282 -377 468 -150 151 -192 186 -250 216 -177 90
-458 120 -700 73 -44 -8 -85 -15 -92 -15 -7 0 -14 37 -18 108 -13 187 -68 364
-177 560 -54 96 -77 124 -270 324 -116 120 -235 234 -265 254 -105 70 -254
118 -473 154 -116 19 -329 28 -342 14z m332 -600 c167 -28 175 -34 351 -217
257 -267 308 -378 296 -645 -5 -113 -32 -271 -50 -289 -4 -3 -21 6 -39 21 -18
14 -78 58 -132 98 -209 150 -497 409 -799 717 -156 159 -153 150 -97 248 19
34 38 54 53 57 12 2 58 11 102 19 89 18 171 15 315 -9z m1728 -1379 c46 -14
65 -30 186 -158 176 -185 197 -215 250 -344 72 -178 81 -211 66 -250 -10 -30
-9 -37 5 -53 16 -18 16 -23 -4 -90 -25 -80 -110 -280 -120 -280 -4 0 -65 52
-136 116 -72 65 -166 147 -210 184 -44 37 -96 85 -115 105 -19 21 -143 137
-275 258 -132 121 -251 230 -264 242 l-23 23 41 79 c58 111 111 151 224 168
119 19 312 18 375 0z"/>
<path d="M45298 39964 c-4 -3 -125 -6 -270 -8 -275 -2 -321 -8 -473 -57 -213
-70 -592 -330 -856 -586 -58 -57 -111 -103 -116 -103 -19 0 -141 -198 -213
-345 -117 -237 -146 -389 -121 -630 39 -361 174 -675 413 -960 250 -298 468
-416 773 -419 120 -1 120 -1 280 53 380 127 630 263 823 446 149 140 229 266
367 580 176 399 224 590 195 780 -15 103 -67 278 -126 430 -25 66 -55 151 -65
188 -40 142 -143 299 -309 468 -83 85 -119 114 -170 138 -60 28 -118 39 -132
25z m-131 -597 c47 -11 56 -18 118 -96 79 -100 103 -146 163 -306 91 -248 95
-262 96 -370 l1 -100 -68 -160 c-109 -257 -209 -454 -260 -511 -61 -67 -135
-123 -232 -174 -324 -172 -408 -203 -550 -204 -150 -1 -211 34 -357 203 -78
91 -111 138 -149 217 -86 178 -139 374 -139 515 0 83 37 194 105 308 75 129
299 336 525 488 267 178 382 218 601 207 52 -3 118 -11 146 -17z"/>
<path d="M45215 36251 c-45 -12 -110 -47 -148 -80 -66 -59 -124 -206 -113
-288 13 -99 90 -210 178 -259 45 -24 64 -29 123 -29 61 1 82 6 150 38 44 21
95 53 113 70 46 43 83 119 89 182 9 90 -46 237 -109 290 -74 63 -202 97 -283
76z"/>
<path d="M11075 22595 c-22 -8 -50 -14 -62 -14 -37 -1 -159 -93 -208 -157 -77
-99 -116 -188 -164 -379 -34 -139 -45 -243 -50 -509 -4 -178 -10 -261 -17
-263 -6 -2 -69 58 -140 133 -138 146 -288 276 -422 368 -45 31 -85 56 -88 56
-3 0 -43 18 -87 39 -135 65 -317 89 -427 57 -172 -51 -291 -192 -330 -391 -17
-88 -17 -99 1 -251 19 -174 30 -214 95 -352 24 -52 44 -96 44 -99 0 -3 51 -69
114 -147 229 -284 773 -787 957 -886 16 -8 69 -39 119 -67 49 -29 92 -53 96
-53 6 0 104 -44 144 -64 14 -7 66 -25 115 -40 50 -15 110 -33 135 -41 101 -32
175 -43 240 -36 96 10 116 25 167 121 16 30 36 66 45 80 39 60 100 179 158
305 55 121 71 164 105 275 8 25 21 65 28 90 29 90 97 418 97 464 0 15 9 71 20
125 34 170 63 490 55 631 -15 293 -69 504 -166 648 -16 24 -29 45 -29 48 0 17
-90 120 -156 179 -100 89 -115 98 -201 124 -79 24 -129 25 -188 6z"/>
<path d="M49120 22594 c-19 -7 -44 -13 -55 -13 -12 -1 -25 -5 -30 -10 -6 -5
-28 -19 -49 -31 -58 -32 -129 -95 -180 -159 -68 -88 -181 -316 -201 -409 -9
-42 -21 -95 -27 -117 -6 -22 -14 -96 -18 -165 -7 -127 7 -316 46 -615 8 -66
19 -166 24 -221 4 -56 15 -137 25 -180 46 -215 69 -311 78 -329 6 -11 16 -42
23 -70 37 -146 136 -367 248 -555 15 -25 33 -59 40 -75 27 -57 94 -124 139
-136 76 -21 192 -5 344 46 222 75 302 108 406 168 20 12 70 39 110 61 105 56
219 141 417 310 278 238 497 472 661 705 64 92 108 193 140 321 21 83 24 116
22 258 -2 190 -17 251 -89 367 -120 195 -347 246 -629 142 -63 -24 -253 -136
-340 -202 -44 -33 -159 -140 -256 -239 -97 -98 -182 -177 -188 -175 -9 3 -13
70 -17 244 -5 283 -16 400 -48 515 -35 126 -92 277 -115 307 -12 14 -21 31
-21 37 0 16 -138 166 -153 166 -6 0 -19 7 -28 16 -25 23 -144 54 -199 53 -25
-1 -61 -7 -80 -15z"/>
<path d="M12460 18904 c-70 -33 -154 -114 -190 -184 -53 -105 -70 -180 -70
-315 0 -156 -5 -162 -87 -106 -174 119 -414 165 -547 106 -31 -14 -77 -44
-102 -67 -46 -43 -94 -122 -94 -156 0 -10 -7 -40 -17 -67 -14 -43 -15 -60 -4
-144 7 -53 20 -114 28 -136 8 -22 21 -58 30 -81 21 -60 94 -147 177 -211 96
-74 155 -117 186 -134 13 -8 72 -48 130 -89 162 -117 268 -184 345 -219 39
-18 88 -41 110 -51 54 -25 163 -56 261 -75 221 -41 282 0 349 235 14 52 33
113 41 135 39 111 64 324 64 540 0 86 6 175 15 222 21 107 19 216 -5 334 -32
157 -106 278 -230 377 -142 113 -270 141 -390 86z"/>
<path d="M47654 18904 c-112 -46 -256 -190 -321 -319 -49 -99 -70 -253 -53
-405 6 -58 15 -226 20 -375 6 -194 12 -281 23 -310 8 -22 18 -65 22 -95 7 -51
44 -179 65 -225 5 -11 21 -48 35 -81 51 -117 131 -159 245 -129 29 8 78 17
109 21 31 3 67 12 81 19 14 7 41 16 60 20 35 8 168 71 265 125 28 16 64 35 80
44 44 23 65 37 115 77 55 44 184 132 265 179 67 39 223 184 264 245 15 22 38
69 52 105 21 57 24 81 24 205 0 136 -1 142 -32 207 -38 80 -107 154 -183 193
-50 26 -65 29 -155 29 -107 0 -185 -21 -285 -78 -25 -14 -59 -32 -76 -40 -17
-8 -36 -22 -44 -30 -17 -21 -48 -20 -53 2 -3 9 -5 69 -5 133 0 176 -46 302
-146 402 -103 103 -243 134 -372 81z"/>
<path d="M18976 16520 c-66 -20 -125 -115 -112 -182 3 -18 47 -116 97 -218 50
-101 97 -212 104 -245 36 -156 58 -347 62 -530 4 -163 2 -208 -17 -318 -22
-135 -45 -223 -59 -231 -9 -6 -64 182 -106 366 -15 65 -37 133 -49 150 -62 94
-220 90 -273 -7 -25 -45 -43 -141 -43 -230 0 -45 -10 -85 -38 -158 -20 -54
-41 -99 -47 -99 -14 1 -43 112 -55 212 -5 47 -17 144 -25 215 -8 72 -20 195
-25 275 -6 80 -16 204 -24 276 -17 155 -20 291 -11 474 6 123 5 138 -13 170
-40 71 -159 103 -230 60 -77 -47 -97 -134 -96 -425 0 -136 6 -254 17 -335 9
-69 19 -170 22 -225 11 -196 59 -630 75 -683 5 -15 20 -67 34 -115 32 -106 51
-146 124 -256 74 -111 116 -141 194 -141 33 0 69 5 81 11 43 22 99 85 144 162
26 43 49 80 53 82 4 2 13 -15 19 -38 16 -52 96 -204 125 -235 33 -37 70 -52
126 -52 127 0 223 113 327 384 42 112 65 207 94 396 19 127 21 169 15 340 -3
107 -10 218 -16 245 -6 28 -22 121 -35 208 -27 170 -60 285 -104 357 -15 25
-33 61 -41 80 -27 69 -79 168 -106 200 -49 57 -120 80 -188 60z"/>
<path d="M21000 16468 c-31 -16 -51 -36 -68 -68 l-24 -45 6 -645 c6 -674 17
-988 41 -1177 18 -142 35 -177 104 -213 34 -18 117 -14 153 7 72 42 93 108 78
241 -24 215 -30 382 -40 1072 -12 834 -6 781 -93 825 -63 31 -100 32 -157 3z"/>
<path d="M26095 16471 c-114 -20 -155 -42 -226 -118 -127 -135 -175 -256 -186
-458 -6 -123 6 -183 57 -286 51 -99 178 -190 320 -227 41 -11 119 -31 172 -45
127 -33 147 -44 172 -92 16 -31 21 -64 24 -160 4 -118 4 -121 -33 -220 -43
-116 -43 -115 -103 -155 -39 -26 -55 -30 -111 -30 -64 0 -65 0 -111 48 -42 44
-48 55 -54 109 -8 69 -40 139 -76 165 -59 43 -151 35 -210 -18 -73 -66 -85
-145 -42 -267 59 -162 152 -274 280 -335 l77 -37 141 0 141 0 84 42 c157 78
246 193 326 420 26 73 28 89 27 243 0 183 -11 243 -66 363 -56 121 -182 211
-341 243 -39 8 -81 19 -92 24 -11 6 -56 19 -100 30 -91 23 -130 53 -146 113
-19 73 16 205 74 272 32 37 33 37 110 39 78 1 78 1 113 -36 33 -36 34 -41 34
-116 0 -155 53 -222 173 -222 67 0 113 28 142 85 17 34 20 59 19 160 -1 137
-14 181 -82 282 -51 74 -84 103 -164 141 -118 55 -209 66 -343 43z"/>
<path d="M33465 16471 c-114 -20 -155 -42 -226 -118 -127 -135 -175 -256 -186
-458 -6 -123 6 -183 57 -286 51 -99 178 -190 320 -227 41 -11 119 -31 172 -45
127 -33 147 -44 172 -92 16 -31 21 -64 24 -160 4 -118 4 -121 -33 -220 -43
-116 -43 -115 -103 -155 -39 -26 -55 -30 -111 -30 -64 0 -65 0 -111 48 -42 44
-48 55 -54 109 -8 69 -40 139 -76 165 -59 43 -151 35 -210 -18 -73 -66 -85
-145 -42 -267 59 -162 152 -274 280 -335 l77 -37 141 0 141 0 84 42 c157 78
246 193 326 420 26 73 28 89 27 243 0 183 -11 243 -66 363 -56 121 -182 211
-341 243 -39 8 -81 19 -92 24 -11 6 -56 19 -100 30 -91 23 -130 53 -146 113
-19 73 16 205 74 272 32 37 33 37 110 39 78 1 78 1 113 -36 33 -36 34 -41 34
-116 0 -155 53 -222 173 -222 67 0 113 28 142 85 17 34 20 59 19 160 -1 137
-14 181 -82 282 -51 74 -84 103 -164 141 -118 55 -209 66 -343 43z"/>
<path d="M21613 16451 c-90 -41 -96 -82 -88 -631 6 -468 10 -530 60 -960 18
-162 37 -325 40 -362 14 -142 95 -229 199 -214 57 9 106 42 129 86 15 30 17
50 12 135 -4 55 -13 147 -21 204 -8 58 -14 109 -14 114 0 24 193 -235 249
-335 41 -74 126 -167 168 -185 121 -50 243 43 229 174 -5 43 -16 64 -69 135
-34 46 -94 133 -132 193 -38 61 -97 142 -131 180 -34 39 -104 121 -156 184
l-94 114 172 171 c95 94 180 187 190 206 23 46 23 126 0 165 -23 40 -71 72
-121 83 -31 6 -51 4 -90 -12 -27 -11 -56 -28 -63 -39 -22 -29 -196 -207 -203
-207 -11 0 -24 353 -20 531 3 134 1 171 -12 195 -44 84 -143 116 -234 75z"/>
<path d="M37918 16310 c-68 -36 -111 -146 -89 -227 23 -86 90 -136 182 -136
94 0 156 55 189 168 14 49 2 107 -32 150 -48 62 -174 84 -250 45z"/>
<path d="M23795 16167 c-151 -51 -257 -142 -295 -253 -43 -130 -37 -330 15
-434 12 -25 28 -63 35 -85 7 -22 26 -60 43 -84 17 -25 30 -50 30 -56 0 -6 -13
-31 -30 -56 -85 -124 -123 -238 -123 -369 0 -213 113 -416 276 -496 56 -28 66
-29 189 -29 185 1 254 23 345 111 l67 64 60 -40 c145 -96 258 -93 311 10 46
91 22 183 -63 237 -27 17 -66 43 -87 56 l-36 25 29 85 c53 154 64 339 23 394
-34 45 -70 66 -123 71 -119 11 -191 -76 -191 -231 0 -23 -4 -48 -9 -56 -12
-19 -40 4 -142 113 l-79 84 60 89 c34 48 82 115 109 149 58 74 81 153 81 277
0 218 -75 356 -221 406 -80 28 -218 36 -274 18z m148 -341 c17 -44 18 -106 2
-139 -18 -38 -82 -117 -95 -117 -4 0 -14 17 -23 38 -38 98 -28 179 26 212 37
23 83 26 90 6z m-41 -947 c43 -49 110 -108 171 -150 13 -9 -31 -76 -56 -83
-41 -11 -122 -6 -143 9 -27 18 -61 97 -69 160 -7 51 14 125 35 125 5 0 33 -27
62 -61z"/>
<path d="M13687 16009 c-63 -47 -74 -125 -29 -208 22 -42 361 -448 627 -751
397 -453 1250 -1309 1689 -1695 88 -77 221 -194 295 -260 215 -190 325 -283
496 -420 88 -71 205 -165 260 -210 55 -45 231 -180 390 -300 169 -126 297
-230 307 -247 9 -16 19 -66 23 -111 4 -45 15 -122 25 -172 10 -49 21 -112 25
-140 10 -82 45 -246 65 -310 10 -33 28 -94 40 -135 57 -202 119 -388 131 -396
5 -3 9 -12 9 -21 0 -32 159 -351 215 -433 17 -25 34 -52 38 -60 25 -56 266
-354 310 -383 12 -8 50 -39 84 -69 120 -105 319 -189 483 -204 173 -16 345 91
427 266 39 84 48 168 33 325 -7 77 -19 158 -27 180 -8 22 -20 63 -28 90 -23
85 -44 135 -126 300 -43 88 -79 168 -79 178 0 18 25 24 35 7 4 -6 21 -17 38
-25 18 -8 46 -23 62 -34 31 -19 83 -49 147 -85 20 -12 128 -73 240 -137 112
-64 210 -119 218 -123 8 -3 51 -26 95 -49 44 -24 145 -77 225 -119 80 -41 195
-101 255 -133 61 -31 126 -65 145 -75 19 -10 71 -35 115 -55 98 -46 263 -123
370 -174 227 -109 303 -144 415 -191 41 -17 93 -40 116 -50 23 -11 46 -20 52
-20 6 0 23 -7 39 -15 15 -8 57 -26 93 -41 36 -15 83 -35 105 -45 22 -9 69 -29
105 -44 36 -14 76 -32 90 -39 14 -7 37 -16 52 -20 34 -8 88 -53 88 -73 0 -14
25 -76 71 -178 10 -22 38 -89 64 -150 98 -234 136 -311 258 -516 247 -418 592
-806 965 -1086 151 -113 360 -233 407 -233 9 0 33 -9 55 -20 57 -29 270 -48
348 -30 78 17 139 51 193 107 62 64 88 111 109 194 14 54 16 82 9 132 -13 97
-65 256 -107 330 -12 20 -31 53 -42 73 -36 63 -53 87 -134 194 -163 213 -251
319 -392 466 -122 129 -141 154 -129 164 12 10 24 9 63 -8 26 -11 63 -23 82
-27 19 -4 62 -15 95 -25 33 -10 94 -28 135 -40 41 -11 104 -29 140 -40 36 -10
97 -27 135 -38 39 -12 108 -30 155 -42 47 -11 119 -29 160 -40 73 -18 157 -38
270 -65 96 -23 193 -46 270 -65 41 -10 102 -24 135 -30 33 -7 101 -20 150 -30
184 -36 212 -42 290 -61 44 -11 88 -19 98 -19 10 0 57 -9 105 -19 84 -19 203
-39 382 -66 144 -21 290 -46 397 -66 56 -10 117 -19 136 -19 69 0 88 -15 212
-172 66 -84 156 -190 200 -237 124 -130 342 -328 459 -416 58 -44 130 -98 158
-120 53 -40 148 -104 243 -163 168 -104 267 -163 296 -177 19 -8 88 -45 154
-80 66 -36 131 -70 145 -77 14 -6 43 -19 65 -28 22 -10 65 -29 95 -43 30 -14
78 -35 105 -47 28 -12 61 -27 75 -35 14 -7 41 -18 60 -23 19 -6 67 -23 105
-37 189 -71 319 -115 385 -130 30 -7 98 -25 150 -39 261 -71 447 -93 730 -85
197 5 221 8 290 32 41 14 93 35 115 46 58 29 149 114 180 169 38 67 64 185 55
247 -11 78 -31 148 -52 177 -10 14 -18 31 -18 36 0 13 -166 191 -208 222 -18
14 -56 43 -85 65 -104 81 -328 223 -522 331 -186 104 -173 97 -455 226 -36 16
-101 47 -145 67 -44 21 -92 41 -107 45 -31 7 -37 30 -12 40 9 3 239 6 512 6
324 0 570 5 707 15 116 7 302 17 415 20 113 4 259 13 325 20 66 8 186 19 267
25 80 5 177 14 215 19 37 5 109 12 158 16 50 3 151 14 225 25 274 38 387 52
475 61 50 4 126 15 170 23 96 19 249 44 365 61 156 23 294 47 382 66 48 10 95
19 105 19 10 0 56 8 103 19 47 11 130 29 185 40 55 11 143 30 195 41 137 29
182 33 206 18 12 -7 39 -23 60 -36 22 -12 51 -30 66 -40 128 -83 488 -252 535
-252 7 0 32 -8 55 -19 102 -44 381 -114 583 -146 50 -8 117 -18 150 -24 171
-29 845 -55 1055 -41 227 15 373 31 420 45 25 7 63 16 85 20 56 9 176 45 200
60 11 7 54 27 95 45 99 43 181 109 230 184 93 141 104 276 36 402 -44 81 -62
102 -136 159 -57 44 -138 86 -225 117 -78 28 -232 68 -263 68 -15 0 -55 7 -87
16 -90 24 -370 64 -450 64 -92 0 -145 10 -145 26 0 7 10 16 23 19 12 4 36 13
52 20 17 8 46 18 65 24 19 5 67 22 105 36 39 15 90 33 115 41 25 8 59 21 77
29 17 8 36 15 43 15 6 0 32 8 58 19 26 10 81 31 122 46 41 16 93 36 116 46 22
11 46 19 53 19 7 0 25 7 39 15 15 8 45 21 67 29 22 8 64 23 93 35 28 12 76 30
105 42 28 12 70 27 92 35 22 8 52 21 67 29 14 8 31 15 38 15 10 0 32 9 155 65
70 31 127 56 240 105 177 77 207 90 237 106 14 8 31 14 36 14 10 0 108 46 397
185 280 135 326 155 349 155 14 0 52 -9 83 -19 32 -11 110 -32 173 -46 63 -15
147 -36 185 -46 39 -10 79 -19 90 -19 11 0 52 -8 90 -19 70 -19 215 -44 355
-62 41 -5 107 -16 145 -24 85 -17 460 -40 645 -40 336 1 763 42 871 83 15 6
51 15 82 21 30 5 95 29 144 51 48 23 108 51 133 63 59 27 166 112 211 168 20
24 56 80 80 124 44 79 44 81 43 175 0 64 -6 106 -16 130 -9 19 -20 46 -24 60
-13 46 -71 126 -125 172 -54 46 -151 98 -183 98 -9 0 -29 6 -44 14 -111 57
-559 87 -980 66 -128 -7 -236 -10 -238 -7 -9 8 15 47 29 47 7 0 38 18 70 40
31 22 60 40 63 40 4 0 98 60 264 169 30 20 60 38 65 41 25 13 138 88 333 223
70 48 183 126 252 172 69 47 148 102 176 123 123 89 273 199 316 232 26 19 75
55 108 80 232 172 686 533 897 714 148 127 186 155 268 196 22 11 58 31 80 45
22 13 47 27 55 31 60 29 266 153 315 190 33 24 72 52 86 62 59 40 196 141 260
192 147 118 423 377 516 483 54 62 138 157 188 213 143 160 310 387 445 605
63 102 125 250 159 383 31 120 29 296 -4 394 -31 91 -91 171 -168 223 -64 43
-172 79 -236 79 -99 0 -310 -82 -410 -160 -25 -20 -57 -43 -71 -51 -98 -63
-384 -359 -551 -569 -46 -58 -124 -157 -175 -220 -50 -63 -128 -168 -174 -234
-46 -65 -98 -139 -116 -165 -87 -123 -241 -359 -297 -456 -7 -11 -22 -34 -34
-52 -13 -17 -23 -34 -23 -37 0 -2 -18 -32 -40 -65 -22 -33 -40 -62 -40 -65 0
-3 -19 -34 -42 -68 -54 -82 -71 -108 -163 -258 -42 -69 -87 -141 -99 -160 -79
-122 -99 -155 -147 -248 -47 -90 -63 -111 -118 -155 -36 -29 -75 -59 -87 -67
-13 -8 -128 -94 -256 -191 -128 -97 -262 -196 -298 -221 -100 -70 -178 -124
-265 -185 -237 -166 -262 -183 -485 -328 -91 -59 -191 -125 -223 -146 -32 -22
-61 -39 -66 -39 -5 0 -14 -7 -21 -15 -7 -9 -40 -32 -74 -51 -34 -20 -97 -57
-141 -84 -147 -90 -249 -151 -315 -190 -50 -29 -72 -43 -99 -62 -45 -34 -72
-10 -33 29 112 112 322 419 322 472 0 10 10 50 21 87 48 155 5 313 -116 420
-33 30 -66 54 -73 54 -7 0 -30 9 -52 20 -29 15 -59 20 -117 20 -177 0 -381
-93 -608 -279 -44 -35 -82 -67 -85 -71 -3 -3 -31 -28 -63 -55 -103 -86 -370
-378 -470 -511 -156 -211 -175 -236 -231 -309 -29 -38 -61 -83 -70 -100 -10
-16 -27 -47 -39 -67 -12 -20 -46 -78 -75 -130 -29 -51 -57 -100 -62 -108 -5
-8 -37 -64 -72 -125 -62 -110 -70 -126 -146 -285 -42 -88 -56 -106 -107 -133
-47 -25 -143 -67 -152 -67 -4 0 -27 -9 -50 -20 -57 -28 -100 -47 -283 -125
-85 -36 -168 -72 -185 -79 -16 -7 -86 -35 -155 -61 -69 -26 -138 -54 -155 -61
-16 -7 -48 -19 -70 -27 -22 -8 -65 -25 -95 -37 -30 -12 -73 -28 -95 -36 -22
-8 -49 -19 -60 -24 -62 -28 -318 -120 -406 -145 -26 -7 -60 -20 -77 -29 -17
-9 -38 -16 -47 -16 -10 0 -31 -7 -48 -15 -32 -14 -233 -84 -317 -110 -25 -7
-58 -18 -75 -24 -16 -6 -70 -22 -120 -37 -49 -14 -115 -34 -145 -43 -62 -20
-175 -55 -265 -81 -33 -10 -91 -27 -130 -39 -74 -22 -159 -45 -290 -79 -202
-53 -285 -75 -343 -93 -34 -10 -69 -19 -78 -19 -9 0 -48 -9 -87 -19 -40 -10
-115 -28 -167 -40 -52 -11 -115 -26 -140 -32 -157 -38 -181 -42 -192 -31 -14
14 6 42 31 42 9 0 27 7 40 17 23 15 51 31 171 95 30 16 62 33 70 38 15 9 124
69 235 130 91 50 98 54 130 74 287 183 467 338 542 467 32 56 63 155 63 204 0
75 -45 172 -111 236 -102 101 -242 143 -402 121 -45 -7 -109 -14 -142 -18 -33
-3 -80 -12 -105 -19 -25 -8 -74 -23 -110 -34 -36 -11 -83 -25 -105 -30 -22 -5
-71 -22 -110 -36 -73 -27 -145 -54 -205 -75 -69 -25 -286 -114 -375 -154 -16
-8 -52 -24 -80 -36 -78 -35 -162 -77 -260 -130 -49 -27 -121 -65 -160 -84 -38
-20 -106 -55 -150 -79 -45 -24 -92 -50 -105 -57 -14 -7 -32 -17 -40 -22 -8 -5
-29 -15 -46 -23 -18 -8 -60 -31 -95 -51 -55 -32 -91 -54 -214 -131 -11 -7 -36
-22 -55 -33 -40 -23 -57 -34 -114 -72 -23 -15 -106 -72 -186 -125 -80 -54
-188 -132 -240 -173 -52 -42 -120 -94 -150 -117 -30 -22 -128 -109 -218 -192
-89 -83 -165 -151 -170 -151 -4 0 -77 -7 -162 -14 -86 -8 -219 -18 -295 -21
-77 -3 -248 -15 -380 -25 -177 -14 -394 -21 -825 -25 -592 -7 -1496 7 -1660
25 -47 5 -157 14 -245 19 -88 6 -236 17 -330 26 -93 8 -226 18 -295 23 -69 4
-124 11 -123 16 3 12 99 43 188 60 66 13 152 32 255 58 25 6 72 16 105 23 127
27 315 76 405 105 30 10 71 21 90 25 35 7 71 21 145 55 118 54 154 70 160 70
4 0 44 24 88 54 110 72 206 174 249 262 31 66 33 75 33 179 -1 101 -3 114 -29
165 -78 149 -181 221 -381 264 -130 28 -215 36 -385 37 -166 1 -524 -18 -576
-31 -23 -5 -84 -14 -135 -20 -100 -11 -279 -43 -369 -65 -30 -7 -109 -26 -175
-40 -66 -15 -147 -35 -180 -45 -33 -10 -94 -27 -135 -39 -41 -12 -102 -30
-135 -41 -33 -11 -66 -20 -73 -20 -8 0 -28 -7 -45 -15 -18 -8 -52 -21 -77 -29
-76 -25 -164 -56 -185 -65 -11 -5 -56 -22 -100 -39 -44 -17 -93 -38 -110 -46
-16 -9 -36 -16 -42 -16 -7 0 -27 -9 -45 -20 -18 -11 -39 -20 -46 -20 -29 0
-467 -225 -564 -290 -33 -22 -62 -40 -65 -40 -2 0 -31 -18 -64 -40 -33 -22
-63 -40 -66 -40 -3 0 -18 -10 -35 -21 l-30 -21 -81 20 c-45 12 -125 31 -177
43 -52 12 -129 29 -170 39 -41 10 -118 27 -170 39 -266 61 -435 104 -523 132
-31 11 -64 19 -72 19 -8 0 -43 9 -77 19 -68 20 -156 46 -283 81 -173 48 -223
62 -305 87 -47 13 -101 31 -120 38 -19 7 -75 25 -125 40 -49 15 -112 35 -140
45 -27 10 -84 28 -125 40 -41 13 -91 29 -110 37 -19 7 -57 19 -85 27 -27 8
-66 19 -85 26 -19 7 -57 20 -85 30 -27 9 -84 30 -125 45 -77 28 -136 50 -237
87 -32 11 -76 29 -99 39 -23 11 -47 19 -55 19 -8 1 -32 9 -54 20 -22 11 -46
19 -53 20 -7 0 -31 8 -55 18 -53 24 -141 57 -189 72 -21 6 -40 16 -43 21 -4 5
-14 9 -23 9 -9 0 -30 7 -47 16 -16 9 -69 31 -117 50 -47 18 -101 40 -120 48
-18 7 -58 24 -88 36 -122 50 -182 82 -172 92 7 7 78 5 214 -6 464 -37 759 -7
954 96 32 17 71 37 86 45 42 22 108 102 141 171 28 60 29 68 25 165 -8 183
-74 289 -258 412 -99 67 -137 87 -235 122 -22 7 -54 20 -72 28 -17 8 -37 15
-45 15 -7 0 -44 9 -83 19 -321 89 -939 148 -1360 130 -250 -10 -559 -35 -605
-48 -19 -5 -60 -12 -90 -16 -56 -6 -203 -31 -390 -65 -58 -11 -117 -20 -131
-20 -14 0 -59 -9 -100 -20 -81 -21 -135 -25 -144 -11 -3 6 -38 28 -78 51 -39
22 -88 51 -108 63 -19 12 -81 49 -137 82 -57 33 -118 69 -136 80 -19 11 -67
39 -107 63 -41 23 -83 48 -94 55 -72 45 -191 121 -255 163 -41 27 -79 51 -85
54 -5 3 -50 32 -100 64 -49 33 -142 93 -205 134 -149 97 -257 170 -350 237
-41 30 -97 70 -125 89 -27 20 -75 53 -105 75 -30 22 -92 66 -138 98 -45 32
-99 71 -120 86 -20 15 -49 36 -64 45 -31 21 -98 72 -347 267 -99 77 -232 181
-296 230 -100 77 -338 275 -525 436 -30 26 -125 106 -210 179 -575 490 -1276
1184 -1970 1948 -126 140 -169 172 -229 172 -31 -1 -55 -8 -74 -21z"/>
<path d="M35660 15958 c-63 -43 -75 -70 -78 -173 -2 -51 2 -124 8 -162 8 -40
16 -247 21 -508 10 -489 20 -708 36 -745 12 -28 46 -61 80 -79 36 -18 124 -13
161 9 75 46 90 116 73 354 -6 89 -11 325 -12 525 l-2 364 39 29 c33 24 47 28
88 26 46 -3 53 -7 82 -45 20 -26 35 -60 39 -86 8 -54 41 -113 77 -140 40 -30
115 -34 171 -9 68 30 91 80 85 186 -4 73 -9 90 -53 176 -60 115 -116 175 -210
221 -61 30 -81 34 -160 37 -56 2 -114 -2 -155 -11 -60 -14 -65 -14 -77 3 -36
51 -155 67 -213 28z"/>
<path d="M41262 15934 c-150 -40 -223 -99 -290 -233 -43 -84 -52 -113 -67
-214 -32 -214 -8 -332 89 -425 48 -47 191 -124 282 -151 135 -42 211 -101 185
-143 -6 -10 -11 -28 -11 -41 0 -51 -90 -97 -188 -97 -61 0 -71 3 -93 26 -28
31 -93 69 -130 78 -33 7 -105 -17 -138 -47 -54 -50 -64 -123 -27 -202 28 -61
85 -114 168 -157 59 -30 70 -32 190 -36 144 -4 195 6 312 65 98 49 175 126
217 216 33 70 34 76 34 197 0 124 0 126 -35 189 -72 133 -175 211 -355 269
-33 11 -89 34 -124 51 l-63 32 7 47 c8 62 35 172 47 195 17 32 70 57 123 57
28 0 55 -4 62 -8 6 -4 21 -33 33 -64 30 -82 59 -120 110 -145 54 -28 92 -29
147 -3 48 21 79 64 88 121 11 62 -45 226 -98 291 -52 63 -123 113 -190 133
-64 19 -214 19 -285 -1z"/>
<path d="M20013 15930 c-80 -16 -222 -92 -277 -147 -15 -15 -52 -77 -82 -137
-47 -97 -54 -118 -54 -171 0 -92 47 -147 137 -161 87 -13 141 29 217 167 30
54 45 71 87 94 44 23 59 27 104 22 86 -9 137 -29 176 -70 33 -33 38 -46 45
-105 6 -55 -5 -166 -18 -177 -2 -2 -64 -8 -139 -14 -74 -6 -159 -17 -187 -24
-149 -39 -334 -215 -371 -353 -19 -74 -29 -188 -20 -252 28 -202 146 -282 416
-282 181 0 292 34 378 115 21 19 39 34 40 33 1 -2 7 -22 13 -45 24 -83 87
-133 169 -133 66 0 113 27 141 80 28 57 28 68 -8 246 -40 193 -56 339 -69 609
-17 346 -16 338 -45 400 -32 70 -155 201 -226 239 -96 52 -322 87 -427 66z
m263 -1071 c-9 -55 -49 -139 -82 -170 -23 -21 -36 -24 -125 -27 -113 -4 -120
1 -100 67 24 82 108 148 205 161 114 14 109 16 102 -31z"/>
<path d="M36742 15913 c-54 -10 -112 -98 -112 -169 0 -35 98 -352 135 -435 45
-103 62 -162 85 -304 11 -66 32 -160 45 -210 13 -49 35 -139 49 -200 37 -171
55 -223 89 -262 69 -79 187 -84 254 -12 27 30 183 334 183 357 0 9 18 64 39
122 21 58 46 139 56 180 10 41 31 117 47 168 15 51 32 121 37 155 5 34 19 116
30 182 29 164 37 292 22 338 -36 109 -223 133 -291 37 -14 -19 -26 -69 -40
-161 -33 -223 -68 -412 -83 -455 -8 -22 -23 -75 -32 -117 -15 -69 -53 -184
-55 -165 0 4 -16 87 -35 184 -27 134 -45 198 -75 266 -22 49 -56 144 -76 211
-50 171 -62 204 -92 239 -42 49 -100 66 -180 51z"/>
<path d="M27400 15899 c-84 -14 -189 -69 -251 -130 -89 -87 -179 -258 -220
-417 -48 -189 -3 -524 98 -729 54 -111 183 -226 331 -296 64 -31 74 -32 209
-35 l142 -4 92 49 c105 55 195 144 248 243 67 125 20 240 -108 269 -37 8 -51
6 -95 -13 -44 -20 -57 -32 -91 -90 -35 -60 -45 -70 -103 -97 -53 -26 -71 -30
-108 -24 -50 7 -147 68 -193 120 -47 54 -91 211 -106 380 -5 58 -2 85 19 158
44 150 105 252 165 277 23 9 45 10 94 1 133 -23 195 -6 234 64 44 79 24 174
-47 226 -55 41 -214 65 -310 48z"/>
<path d="M31065 15896 c-41 -18 -82 -68 -95 -116 -12 -46 -12 -881 0 -1225 28
-756 28 -752 83 -812 19 -21 29 -23 123 -23 116 0 134 9 155 80 11 35 -3 480
-17 558 l-6 32 115 0 c126 0 252 26 360 74 113 50 239 198 305 359 22 52 27
81 30 183 5 145 -9 204 -70 309 -23 39 -57 97 -76 130 -66 112 -248 274 -359
320 -78 31 -252 67 -291 59 -26 -5 -36 -1 -64 28 -53 52 -132 71 -193 44z
m416 -445 c103 -54 193 -154 273 -305 49 -92 49 -143 0 -237 -47 -88 -94 -131
-175 -157 -89 -29 -141 -35 -215 -27 l-64 7 0 368 c0 285 3 370 13 374 28 12
125 -1 168 -23z"/>
<path d="M38880 15899 c-84 -14 -189 -69 -251 -130 -89 -87 -179 -258 -220
-417 -48 -189 -3 -524 98 -729 54 -111 183 -226 331 -296 64 -31 74 -32 209
-35 l142 -4 92 49 c105 55 195 144 248 243 67 125 20 240 -108 269 -37 8 -51
6 -95 -13 -44 -20 -57 -32 -91 -90 -35 -60 -45 -70 -103 -97 -53 -26 -71 -30
-108 -24 -50 7 -147 68 -193 120 -47 54 -91 211 -106 380 -5 58 -2 85 19 158
44 150 105 252 165 277 23 9 45 10 94 1 133 -23 195 -6 234 64 44 79 24 174
-47 226 -55 41 -214 65 -310 48z"/>
<path d="M37945 15876 c-60 -26 -115 -120 -100 -169 8 -27 22 -404 33 -887 9
-383 11 -397 66 -452 59 -58 159 -61 220 -7 61 53 60 37 47 622 -15 683 -25
799 -70 851 -41 48 -136 68 -196 42z"/>
<path d="M28549 15815 c-37 -12 -69 -38 -167 -139 -103 -106 -126 -136 -160
-207 -46 -95 -84 -250 -105 -428 -15 -124 -8 -202 29 -313 59 -182 196 -307
416 -381 88 -30 101 -31 253 -32 l160 0 78 37 c112 54 172 115 240 246 101
195 145 368 127 508 -5 39 -27 124 -48 190 -90 272 -134 327 -353 433 -79 38
-162 74 -184 80 -70 19 -235 23 -286 6z m296 -382 c133 -58 140 -63 175 -156
39 -103 70 -213 70 -250 0 -34 -53 -191 -86 -258 -30 -61 -76 -106 -122 -119
-61 -19 -181 2 -269 45 -140 69 -171 127 -160 304 6 98 44 267 74 324 22 44
58 86 104 123 34 28 44 31 86 27 27 -3 84 -21 128 -40z"/>
<path d="M29979 15815 c-37 -12 -69 -38 -167 -139 -103 -106 -126 -136 -160
-207 -46 -95 -84 -250 -105 -428 -15 -124 -8 -202 29 -313 59 -182 196 -307
416 -381 88 -30 101 -31 253 -32 l160 0 78 37 c112 54 172 115 240 246 101
195 145 368 127 508 -5 39 -27 124 -48 190 -90 272 -134 327 -353 433 -79 38
-162 74 -184 80 -70 19 -235 23 -286 6z m296 -382 c133 -58 140 -63 175 -156
39 -103 70 -213 70 -250 0 -34 -53 -191 -86 -258 -30 -61 -76 -106 -122 -119
-61 -19 -181 2 -269 45 -140 69 -171 127 -160 304 6 98 44 267 74 324 22 44
58 86 104 123 34 28 44 31 86 27 27 -3 84 -21 128 -40z"/>
<path d="M34684 15762 c-45 -15 -100 -43 -122 -61 -65 -51 -155 -155 -184
-213 -74 -146 -98 -254 -98 -442 0 -106 3 -123 34 -209 86 -238 221 -419 363
-485 53 -24 71 -27 196 -30 160 -4 207 4 288 54 76 46 147 120 219 228 86 129
92 197 21 267 -95 95 -212 67 -299 -71 -71 -113 -121 -150 -202 -150 -69 0
-113 23 -154 79 -35 48 -80 130 -74 136 8 8 212 55 283 65 44 6 121 20 170 30
50 10 118 24 152 31 122 23 162 75 163 210 0 175 -90 325 -283 472 -85 65
-200 106 -317 113 -64 4 -87 1 -156 -24z m184 -320 c9 -5 38 -19 63 -31 45
-22 138 -106 128 -116 -3 -3 -71 -16 -150 -30 -79 -14 -170 -32 -202 -40 -32
-9 -63 -15 -67 -13 -11 4 32 113 58 148 30 39 101 90 128 90 13 0 32 -4 42 -8z"/>
<path d="M39994 15762 c-45 -15 -100 -43 -122 -61 -65 -51 -155 -155 -184
-213 -74 -146 -98 -254 -98 -442 0 -106 3 -123 34 -209 86 -238 221 -419 363
-485 53 -24 71 -27 196 -30 160 -4 207 4 288 54 76 46 147 120 219 228 86 129
92 197 21 267 -95 95 -212 67 -299 -71 -71 -113 -121 -150 -202 -150 -69 0
-113 23 -154 79 -35 48 -80 130 -74 136 8 8 212 55 283 65 44 6 121 20 170 30
50 10 118 24 152 31 122 23 162 75 163 210 0 175 -90 325 -283 472 -85 65
-200 106 -317 113 -64 4 -87 1 -156 -24z m184 -320 c9 -5 38 -19 63 -31 45
-22 138 -106 128 -116 -3 -3 -71 -16 -150 -30 -79 -14 -170 -32 -202 -40 -32
-9 -63 -15 -67 -13 -11 4 32 113 58 148 30 39 101 90 128 90 13 0 32 -4 42 -8z"/>
</g>
</svg>
